<mxfile host="Electron" agent="Mozilla/5.0 (Windows NT 10.0; Win64; x64) AppleWebKit/537.36 (KHTML, like Gecko) draw.io/24.7.17 Chrome/128.0.6613.36 Electron/32.0.1 Safari/537.36" version="24.7.17">
  <diagram name="Page-1" id="FdGGVWhffG4T7polO1kb">
    <mxGraphModel dx="1216" dy="601" grid="1" gridSize="10" guides="1" tooltips="1" connect="1" arrows="1" fold="1" page="1" pageScale="1" pageWidth="850" pageHeight="1100" math="0" shadow="0">
      <root>
        <mxCell id="0" />
        <mxCell id="1" parent="0" />
        <mxCell id="AVKwIdNILiTaegCWu8nr-2" value="" style="rounded=0;whiteSpace=wrap;html=1;" vertex="1" parent="1">
          <mxGeometry x="40" y="25.75" width="920" height="534.25" as="geometry" />
        </mxCell>
        <mxCell id="AVKwIdNILiTaegCWu8nr-38" value="" style="edgeStyle=orthogonalEdgeStyle;rounded=0;orthogonalLoop=1;jettySize=auto;html=1;" edge="1" parent="1" source="AVKwIdNILiTaegCWu8nr-3" target="AVKwIdNILiTaegCWu8nr-4">
          <mxGeometry relative="1" as="geometry" />
        </mxCell>
        <mxCell id="AVKwIdNILiTaegCWu8nr-3" value="" style="dashed=0;outlineConnect=0;html=1;align=center;labelPosition=center;verticalLabelPosition=bottom;verticalAlign=top;shape=mxgraph.weblogos.github" vertex="1" parent="1">
          <mxGeometry x="425" y="50" width="60" height="60" as="geometry" />
        </mxCell>
        <mxCell id="AVKwIdNILiTaegCWu8nr-31" value="" style="edgeStyle=orthogonalEdgeStyle;rounded=0;orthogonalLoop=1;jettySize=auto;html=1;" edge="1" parent="1" source="AVKwIdNILiTaegCWu8nr-4" target="AVKwIdNILiTaegCWu8nr-25">
          <mxGeometry relative="1" as="geometry" />
        </mxCell>
        <mxCell id="AVKwIdNILiTaegCWu8nr-4" value="" style="shape=image;verticalLabelPosition=bottom;labelBackgroundColor=default;verticalAlign=top;aspect=fixed;imageAspect=0;image=data:image/png,iVBORw0KGgoAAAANSUhEUgAAAJAAAACfCAYAAAAWEFBtAAAAAXNSR0IArs4c6QAAAARnQU1BAACxjwv8YQUAAAAJcEhZcwAAFiUAABYlAUlSJPAAAGCVSURBVHhe7V0FgB3V1f727VvXrMbdhRiBOMGDQ4MVh2KlOIQCRYuUUqxoKZQWCC7BNRAgQpy4u6xk3eW9t/t/35k3myVsQjbZTQI/ZzOZNzN3rpz73SPXJqSWhN/oN9pN8gTPv9FvtFv0G4B+oz2i3wD0G+0R/Qag32iP6DcA/UZ7RL95YduRy44dsSUkJORH5//v9P8aQCp6TU2NHbxAqNcLj8ezQ/DUJ3svEBCSEBoaau/9f6T/dwBScXX4/X6r+KqqKpSVlaG2RmAKYOOGDdi4cROys7JQVFyEqvIK1FDYREdFIyU5GWkt09GxUyekpaXxfQIu1IPY2Fh4CT7Fqzglnf6/SKj/FwByQeP+zszIwPz581FaXIJFixZh7ty5qCaQ/D6fAaqqsgrVvmr4A34Dlt4RMASS8PBwRERE2KHraIJn6LBh6N27F6JjYnDgkCFITEysk2S/dsn0qwaQiiZVo0qUxPnqy0n4etIkrFu3DqtXrUKAKqi6utrC1JcYHk9IEHA/liJuED2qzzaBKyw8jOCKMCAlJ6fgD5degt59+li4X7NE+tUCSKCQNCktKcGL//0vPvzgQxQWFKCioqKuUkVu8Z1Lj4EnzBsaxI4Txq16yiI7BwI1djjxOIDanuLj49GlWzfcc/99aNOmDaKjo3+VIPpVAqioqBDfTv4G06ZNw6QvvkRZaalJG5EqcfsiCzT9e3dDx/at0KVTOxw+aggS4mMRFublU0kPAdKxm3w+PxavWIupM35AeXkl8guLsXDpKhQUlljcrspy04iMisLoMYfg4ksuwQH9+5u0+jXRrw5AM77/Hk8/8SRtnB/MlpEkUhFVufXBo7OOzh3a4prLzsSAvt2QnpIkhNlzo+0Fhr2qm/zBfzW1NSgpK8fa9VuwNScfH3w+Bd9Mm1vnnbkSR+c2bdvi7HPOxsWXXWb3fi30qwCQpMvW7Gw8+MAD+OSjj+ukjYzcGBq2MnyLi4tNpTlUi7TUZIy/4hycePQo1AaBtT0r6vBTH1RBsqC8rSeSYPolCVVIw/zJ59/C55Nn0Isr5b0ApY5jUOsYe9yxePChh0yl/RroFw0gAWXzpk344P338e7b72DTxo12v2Wrlhg8aJC524ccMhoBSqHb/3I7li5Ziq5d2mP0sEG46KwT0Do9JWjVkMQGAcU92y33Kc/8XUs3v7aW4KQ6s3vbIEZy3guR94VQlFVW4+2PJuOLr6Zj8fK1BiQBTdLo8COOwF333oP09PTgu79c+sUCqLioCC++8AI+++xzrFi+3O7JfT71tFMxcuQIVk5L+OiGv/X6m/iSnlcRDegRB/fHHy/7Pbq1STf7xiAgYOjMiq3hb4+uedTw3RpfuYwfi1sAMVZRbYnqQ8dI7xnwHBBZCF5n5RVh4eoMPPDo/5Cdmw8vbSDZSf0HDsS/nvs3kpKoNn/B9IsCkFUsK3TVipW45abxWLZsOSorK83jGXvMWFxzzdXmlpfSaM7JycWjjzxmtpA6+u6//UqcNHa09fdIpVhFByu9ViChdAnU+hEoL+R9pcbndvoJVBomxSUJsx03lV/Rpux83PbQS5izcBXCCV6BqFPnznjxlQlITU2tM75/afSLAZCyuWnjJnz68cd45qmnUEL3PDY2BkdQHQwfMRwHHXwQ8nLzsHrNWsydMw9ffzUJubk5GDV0EC69cByGHHQAAmUVP64oSpOArxLwV1PayD6Ssd30FWksJg4rKqpwz5Nv4tPJs+3a4wnFKKrYO+++24xskWt4/1JovweQm72NtG+uv/oarFq1CsWFRejarat5NSOGD4fH68Gqlasxm8DZkpGBubNnIzdnK/74h9Nx7unHIjkx3qSNpIn+agmcGn8VAlVSUX7dkQAxaq4KdMtRRtf/0Rfew5sfT6WRL3UWiqHDh+GhRx5FUnLSbwBqapKhvHbNGpx68immruRJDRlyIP5y221ISIi3ivnm2+8wZ+4PtGvC8MPcOdiwfgNuHX8xLr74DFTlFdh9hZN6kREcKC82ADm2ilO5e6PilI6O0opKXHXXs5i7aLXZRLo3gEb/M/9+1myiX5I6269zKvth6ZIluOGa68y2ER1/wgm47/77TX1t3boVH3zwEWbOmmuu+sYN65GVmYHx11+Es39/IioJHneQk9WHAEHjKy+gueOAx7m/99SG0tERHx2Fu675Pbq0b2keogCzZNEiPP7oY9bd4NpNvwTabwEkJorZDz/4D6xcuQJF9LqOPvpoXH75ZSb6BZ5JX3+DNevWIzIy3IYpli5ebGrrbKotLwEXTskjEjykrvyVxWYsO3f2HnC2J8G2a6f2uOP685DSIsEGbCVpJ3/1FWbNmOGECYJ7f6f9EkBinir3uWeewezZs6i2KnHsccfillv/bO53QUEhPvnsC2zZkmGM1zDDunVrMXbMUFxz6ZmI5PsaMlA8qgZ/ZQlqKkoQopbNG/WBo6kae4tcUIRGxaE2IgFDhzG/l51JKRRgnoAcNoq/3nk3vctllJb+XwSI9lsAbd68Gf994QW63dXo2bMXbrnlZpSXV6CwsBDvTnwfmZlZ8Pt9ZHQAG9etQ1hIDS7/01kW3gWPwFJTVcqj3EDjHttIdlHQladUkuIQGAMGu6Ylyw9VlTcmCYiMNcM/v6gYw4cPwmknHI5qHwHDcPIc//P886igvfdLANB+aUTLUH75xZfwz0ceMRvm3HPPQes2bZCVlYUvv/jSPDLX0JSqk310w1Xn4exxY+Glpey44gSFvxL+iiLHA1MpBRT+FohMNtEDCgkNB7wRCIuMYsXyt7yzwnxUswJdA/fHoNs9UjyhMYnwhEVi9aZMLFi4HF9/K+lajaQW8fj0q+kM40wNaZHUAvf9/e8YPXq0Xe/PtN8BSJ6WxpTuuesuvD/xPRsz0tDEksVL4PP5EBcXhwp6MeVlZRY+JTXFwj/8j5txxNABCDNgESB0zwOl+awUxyCtDwIDBe2jkPA4hHjDEB4bjanfzsRX380xYI46qA8OHdkHxbmFCGvCCgyLT0FOQQnOufx2LFmxFnEx0coMpU0V7bhIpu1IyDA2mtPOPBM3/vkmREVF7dcg2m8ApGxImqxdsxYP/u1vmD1rlvUoiwQceVnJyUk8kjFgwEAMHDTApNOTTzyFdevX4ZZr6Xn97minEqiMfGWFtJx9rJAfa2kTRGER8ETEoqLaj2Ur1uGJ517HytUbkJ2TL6QhLSUJIwb3wO3XnYPosFB4mqBzsZbSzhudiPOv/Ctm/bAEKckJZsqXV1QbgAQcYVy1oXL16NkDDz/2GDp07GjX+yuF3kUK/t6nJADNnTMHt4y/CfPmzTXQSBoIVB3JxCOOPIKq7FycfvppOHjowWjZshU1ECuFx/fTvkc4mXzkUSMdm8ZH+0E9zKyiH0seenZUIbXhMcgrq8TTz72BR55+Bes2bDEbRDXoD9SgmMBdtyELHdqkolfXdoolGMPuk/qg6LDjmRffxYWnHYEzjhuN48YciN6Mv2V6EnLzi5BfXFanNisrK9C+fXscMGCAXdcvx/5E+4UEkg2jUfXx19+AJUsW09N2+kY0XDFy1AhceeWV6NCpo6mTZStWYe7cefZOEY1QGdPfTZ6E9m1b4Z23n0a0j625upQF2+aui6wSQtmSqbZqqAbHj/8bPv1yGlVEBAFTbrMQLz7jSAwb3Bv5VDPfzFiEcceMwND+3Q1Ye0xMP8BoNmfmonuntuYASLuqS4IPsXp9Jv76+GuY+cMKhPKe1NYpp47DfZTG8jT3Vym0zwEkCaMsPHDf/Xjl5ZfNnhHJJrjs8sswZswhJmnUD/TxJ5+ZJ1ZeXs4QIcZ82UJffP6ZAWjiO08jkqortMbpdNy+1dbSYI5ISsfD//wvnnv5PRt979q+Jc4fdziGH9gLyTRmY2hzyK0uLaswqeaolj0HkMPkWrNvqqulWp04dV9HZJgXWbS5Hn5+Ij76apb1ng+g9HnmuX8jITGxSfLQHLTnyr0JKDcnFzNnzLCWJkZF0XC+8qorccwxYw1Qn376Od54823r/5HkUV+QDtcTE2uNvTU+c9lF2zNcYAmhp/Xt9z/gzfe+RDXjHT64J5574CqcctQwtEpNgpd2SiXtER9to6gI2knB+JuCnNyEUDVrXpDH8qfDo4NPpEJTCOAbLx+H0Qf3RSW9s4WLFmLqlCn25n6gKBqkfQogt7f5tQkTsGb1amOsPKzTKLoPPXQMyioq8O7ED7Bm7ToCyVFrDjC2gcO1T6LogocYeHZgL5D/od5wfPX1NGzJysXgvl1x//jzkZqUaBJA/T+m5viuDrfCGoxrN8ly3kB0bhqaqJ9GEF1z/gno1C7dVHlBYeF+Cx7RPpdAkjAZGRl1qiwqKhKHHnaY9Y+89dY7yMnNDbqxTgW7tK2CWen869ezMyJoOGt0uyFSv8+G9ZuwdPlaA9slvz/aWrzSteeMrynB0lhygSuPrHuvTujWsY3lafPGjeZQ7K+0TwEkhmVmZprhLGZphehFF12I1LQUTJ02Hbm5eXXGo8vgHxHfkT2hpt2nWzu7diaL/ZQIT7rp2Vi+aj3OPGE0hg3saWNQdWpw+7jrkfLmArbZiMkrC9ZlwEY1gCBSl8SXn39B4K9v/vR3k/YpgNT6165ajdU8RGppLVu1MjtkJe9J8uyMcX7aTJs3bzLQJKXEmyraERBCWTH9u7TDkaMG4phDD0SsOvFIin/H4HGA4wkNQWgQaE1dkYpPR03AiVc2UYA22OD+XRAZEY6S4iIUF5c0ebpNRfsUQGJKQVGhSQEd8rw0r3lRsNdZ1FDl6j3dFwA1kT6GYIgms2kh7ZDRqhgvgfaPWy7CgX272ZiZaEfxO2e+x3zl5BZh2fotNvC6Y7A5tH36ut5RnnRfa+vzCkvw2XdzzQYSyeCPZJn0TOlLze8ojn1N+xRAIrVsMUdgUIdhp04dsW7dBrv+ucrSU3kv/bp3QO9ObSz8z72jwVfRjsK6FaVzLR+H0a1fuaUAb340xSTcrlZkFRsAY2AaPwM6RhefkIilazIxfdEq1FBtifSOeKO1Zz8bxz6kfQYgAUSVUVBQYMzRtaSPpNDPGY1WuTy0m4Zc/7SURCQnxumJE2An9HMVoeeKOyQ0zEbOPbFJSEhogc++mYMNWXmoYno7A1GAFa75SQ8++45NX1VQlW17sjLwHBIZi/i0lkhKboG585dTlRHgfBDpDTUjXythNT74G4DqkZgnkLz1xpv411NPG4MlpqMptjXHRx2FO2OYnumwNeqMKyyMnpeOJmCy8uYJi4A3Lpnqw4saVmD7Dq3Qo0sHrFm7GeE/Y5eFUGwJ1AuXr8fchWtMBW1fFvd9zQsK8UYB3jC0pOPw5kffYkuhsww7KjwM6ckJZg9qfFDrynaW7r6ivQ4gMUEbHPzvhRfw5GP/tPk9LmNkl2hSvNuhqPvu0RApHo0dRUdHmTprqjYaGhFDD42qg5UvlZfeOh1DDzwAr06cjFoCVaptR/nSvVCG0br56T8s1Z26+/WplnGHhsuQZzw0mnt274jUlCS88+5kxCbHw0tVlhAXbR2KmtZbXl7WoCTb17RXASQGqNKf+9eztn69sFDzkwNOLzEBo00RiktKrdUqrFtJOlzm1a+I8rJyelOR6N+zA3VHEzM3CBKTdGUVGDF0ADZl5uPJ/7yPiHAtSnSe1c9PHYWFw8/8zlywEjk0kN2uhe3DCqCKQzMuO3VoiXatU/H19z9g5cqNCI+MQGx0pEnZxQsXYtmSpcaXBtPbh7TXAKSCS22p1/nlF1+03xpOCCWjzaEmIzMyMhHGlic7SIzVVAzn7Ox64VaoSzUhtTZelZwQL9flR8/2hALVFQhhxQkkIh/z2aNHZxzYvwdefGcSJlASSaUI1Nunqb4bf0k5zv7dYVi5Zgtee/8bk6gihd0GgFpUV5QgUFWG2spi+MvzcfyYIVi1PgvPvfaFzZKMIojEpw0b1uOu22/HwvkL9jsptFemc4hpGsPSYOnzzz6HspJiVJAxPQiQ8Z5ILA8JIJfhKkpKMHz4MDJsI+bMmoXNmzZi88ZN1tezNSsLMbEx8NJeEJhENaxEufGD+nVBz67trGOwKUAU6mE8MqmCa8f8lRXw+CvQrmULfDp5DuYsXoP01Bbo1a29Dbyqi2AbUaL4qpHSKgWTvpmL7+ctx+ADuqFty5RgAxB0arExOxdbMrOxdu1GfD9nMd76aCqmzF5ig7hr1mdicL+uyC0sxpRZSxAZEWGrNWaRJ926dUebto7HuT9QswPIbXEvUuo8QZunvLQUZQRPEhn9ZEgUhtSG4vvQWqwI0IgOC8OcufNsXKy6ugr+akopnn0En3qptX9hJVVgSnKqqQW19sXLltF2aIExw/ubGtsTxiqvsm+WrNqIqbMW0UMsQjxVZEJ6IrWSl/EHsHpdJn5YsgbVLMMpJ42hFKmq62R0SXmIYONYv2UrljKuhUvX4ZChfZ0ZiCS55g//+108+NTb+Pjr2Zg6eyklTwZy8oqQV1BMddYKZxw/Ghszt2Ly9AWIpldXy7KVkgfLli7FoAMH28Q60b4GUrOrMIlv7Z7xLL0trUtX/0h7MvdtTxT6+0OxPqQGiwI+hIsRPFSJatGa2KWw6ufRWaJbkkcgmjt3Fu9XwxPqBV83QzckOBi6J2QA4vHUSx/hhnuex7V3P4cr7/gXbrr9adx4+zO4ir8/mDTTeojdpDRRrD6pGAJUZFQ4TjhqKJIS47Flaz5e++BbVPmd7okw5vvcUw4zl1+dmwKBBnPV837Z2cfg2XuvQLdOrRDJcLIPlYQUl/i3YsUK3Dx+PHJzJbP3PTWrBFKl//DDD7j3rruRl5Nr+rydJxR/q41EH78HxYTvMx4fptT4EUmma5FdBN3XoYP74borzsYlF56K0085CmeMG4uObdOxeUu27bmjHcekEtPS0s0+Ca31YdSBfRDOd3+sTnaHQrBqQyYWr9iA8opKq/xFNGqXrd6I7Nwik3ot01rg4jOOQtc26dJHDUoBAaw1w+VTosxdvBqrGWeHduno0aUNG1UtUumiHzSwJ8/x6NG5DU47diQuOesYs4OSEuPMxlqycgO+njofnaMicST5tkCNiHHn5+WTr/MwavRo2/9oX0qhZgOQWrJWV1x35VXU82tNEoWynNeERGBsjZe/Q7CcquuhmkqbCO8jc9qkp+CGP56DP112ps3aa027QevaE+nODurXAz27dcTMuYutg66ivBxJFOPaY2fW7Hk4cGAvtEnTsuA9Y6ZeH9y3C1okxNpUj1wCIED1qu6CxIRoHDbsAFx74UkYObi3gWen6fH50MG9MHfhSmzIyKFaXEKwtEWntmlmr2kq65B+3TGccfXs0tY6Q9UA1PBCyaxFBPGkKT+gO72x6wIebOC9TeqZZtTZWdk2b2rIQQeZZN5X1GwAkrt+2823YOrUqQYmjRWOCw3Djf4IMoliuSYEr3h9mE2G1LD8kWxlV11yBs467xQarlUor6zC5O+cZS/RiQmUMkCr9GRs2JSJpSvXGSBT09LoqUSaWD9s5ECbQyNW7m6LdN7jQVAMHdIbIwf1wphh/XAyVdG4Y0fgtLEjcdoJo9CpfWubq6PwKltD6dXd4/Oendph8oxFKKGBLPtqJOOOi3H6rkxtEkwGxrp46Hnyb/7StZj0/UIMYtgjya9RCMVMKrNccxaAFcuWo1PnTujcpUuDedgb1CzQVa/yW6+/ga8mTbJrqaYTQ7y4NxBpRqpKX8NjDcFTxWsfxfWogwfg6CNHoqK4BO9PnokTf38dbr3vGVx87b04/axr8cGnX9JOqsGpJxxmNohafrHmRGdkWAvMyy10NodSTewmWWXy0KBseXG52TLdO7XBAb07oz+PHl3bsgo9tvfizsDjkp4pb/IQrzr/eNsXaOOWHDz76meoqKw2GyiE5XAGTZ149I6ilBRS4wnwoqNyxHMMy3YTvGjD3+pnKqFnphUsmtGpvOwLahYAaZ36qxMmmBRSQQd5vLgmEAavGE4mGKtqA6jkb1VSPr2d02jrxMdGIyohHu+88SEO6t/FeoOLikqxJSsHt/3tP/jPy++ge9tEJFG9qJWuW7sGq1atsDlD6zZnGzD3ZFWpU3nb+p1EskU0xdUOn9Of40oKhftZYnYU7OSjhuGP5xxrTsH7X87EvU++gcjoCEpSRyXVB4B+i2/l5VUsjweUL4QN71Py9GQLPI/2UDivpfa1q/74G27Ytbw0AzU5gCR9rrvqalbuWvMgQln4E2u96MBCSyyr4qvZ8irht8qWKmrbOt0mtEfFxeDhB/+N6y87BQMH9DAjNjzCiwhKHK2aeOez6cjemoPjDx9iTJYrL9skLjYKQwd0F+cJ0qZlpJPjbUdjqQ6QPC469UiccvRQaUi89elU3HTfCwiwDJLQ9QGgnc7kHBRQwshwTCe2PFJbvK+VHSdS53fnb9N8LPN0mgnP/etfJrX2NjU5gN5+6y3MmDHD5IAKd7onDGf5vfAEJ0ypf7fIUwO/7CAyTYzq3LGtSRUfbYRLzjkeg/p0QX5+MfIofZ7/29X49vW/4dRjRmADxf/M+atw8tHDcMFpR+CKc4/DI7ddjA+fuxOHDj2AUoMgDUqO/Ylc6SI1dfX5J2AA1WEMbb6PJ83CY89NRCU9SoGojhi+nCpu4+Yc2wHfiOUSyDRh18foHmWj7MV7LogmvvOu9Z/tbWpSbq9fvx7/ff4/9lvCXp2FN/jVc8wLa8IhKCVwKgijsCAzxFpHXVgARIRSLlHMV1f40KVDK3Tt1Nq69G++/DREkpmSSq1Tk3AdPaGLTz8Kow/qS48pJhiHY8PsC1K6lnYw/fr5cKWQJHJLeop3Xn0W0lISTKK8OvFrPPDM24iIdca9jHgqoZ2ljshIqmczsoOkeCRkwymFTq/1UEA5dtiaNWvwwXvv7XUp1GQAUsY//vBDU12iKJb5hUA0kjSepfIzpYoaP4pCnBWgfMGYLBW0aUsWisvKDUPm3TC4NrzsQ6NVHW1ioAzNm/94qtWPW1n1D4HHrai9TUo/hNIvNDoRtfQ0bSS/gXzonsrXjY3i5YeuNykj0MyctwIFOUXGFisP/wS2qiofIlludX/onktmg9EMOIJMPY7NsFK85PHcs/9GUWFhMNTeoSYBkAqtlRVvvPa6XavwQ0JC0ZItjA8NMD6e8z0yCR3SzLsInjUYqg7CYqovqTTrByHTtOmBOtQEMJHSOJh20ZADultFSOK4gHEqS8feJQe4DoVGxtnOG96oOF40PGdI95RvNbbYuGj06tLWetyjosKRQskkvolUnioa0H5eppNPkdvbdbyvBqVwh5KjsSy7JL7sycsuucRA2lD6zUF7DCA3o9o5NSsz065jKXXORhhSg6JXjCkMYREFKFU4r6tZ6C4MZxqe1+vWbqLqqmbhAwaFpPhYhAenTeiGmJWemki3unUQMPuenHzQmA9nU6DksZoN8qMhUnjjF8ste0gbK8g5aN86zcpssfG5Gs2adRkoon04nGFbbR9tsPgKexDV2FEa0rE7IZg/b74NHe0tahIA5efn44OJ74l91hJ6sFBH+ig5ZJfwXzklj8/hjhVUiZZTr41h4DACJi05Ea+88ykKJNK1Wxdb0HFjBqJLu1aorqLKCzKP0HN+7CdkfTXMf0ZOATyUmNoq2FdWYA3EBbn4Y6AJ/tbSZqlkrYVftykLkVERuOjMo1BeUmbSSTMsQwiqxcvXo4y2YFdKnwSaNQ05l5LW4utdPg8o94LAqrWtkDUNdm/QHgHIZcw9d9/tZJjX6p+43cMWGSywGFImj4t/LlPtzCOG+rsVW1g1GZqdnYdFC1ciIiaaFVOLlMQEHDV6EF34YMveD8lH8GSXVuCf/3mPtkcuAhW0P4Llrg8cd0JZZbUPn0+dizsffRkX3fQY4qnGRg7uZc6CyuxKtBqvB5uzcs1199DWsViCvNueFHMZ/zuTJoOAqzqYN2+eLRXfGwb1HgNIrqNmyznXwIl02/v5GW2wvEUhNdD6BBc8LinhFnQ3xrLgW9nSCguK8d5HXxFSFO9kuAqfntzCOhodvjiVobOeudf7kuQcaOrp4mWrsWD+IoRHR6E24ABH0iQiMtymgWTnFuDLaT/gsr88hdsfmoA3Pp6KliktcNNlp+Iv15yFWFuH74BHEio3Kx95xaVIZhypbGCCQcPwEa74hOmNIN/aMpS4ol1NZs2cZTZRc/NpjwE0+euvbYqFChjG/873UWLIbWDBqgmeUvWlNtB6dE+J9+W5vUDCVvfGu5/jvidesc2kgnAxBrmH0gth3FF02yWZdN3cDNoZKW3mHGUVZfj4q9nIJ1AimS8NWZRRIk+fuwxvfTwF51z7MC675Ul8P9dpaOecPAZvvnAHzjxxNBKiIi2e6Jgo6/X2suzfz1mCpWu3oD9V2RAfbLhnp0TwdSbK+gpAjKuGttOEF180rdDcUmi3B1OVMW25MuHFl7B+3Tqr8NGUJuPgRaTYyoIUqK9ZwoiVvz1ZQVnwdjX0OLwhmMlCJ8bG4Pt5y9hy/OjfqxNCI8Jtnk+N2iDDysFfsWYTnvrfB9i0tRD9endhRmR0/xyHd4+UR5fc3/XLIrVTTT58M30xATQL8xavwcwFK/Dpt3PwzifT8eRLH+Gjr+fYNBPNd77gjKNw7rjDcd7pR6GW9h79KOsLyi8sxesffosKSuIOHVpi8tT5+GL6QhwUGYGTAx6UkoeavbAjssbFI5LHF7XkBxuk5hZpr8UBAwfWhWkO2u39gSQetdnlGb8bZysrNJB5DS2gy2tZ6YyxggUpoPEs429HmTcQMawycLvHj+8Ihgi5p2TAqWOHY+wRB6Nb2zS0SEnEVtoE38xegudf/QxrNmbhyDFD8fQD18NXnNeghGssNQQQ3dNd9UWFRkfCV14JrdNSmKDGAesXX32/EM+99ImpXkmR8DBtEOW1czpV1XnjDkNsQixaJiXae16WLzw6HBmbc2yU/qV3JyGejefh2y8xO+bG+/6DBUvW4mKqtj8ygRKm53Rm7JhkmPsY+Tm1VcjmtfLYuUtnfPrll/Z8vwKQpI90/JOPPoZ/PfOMTe9MZSzvIgrpNRLqtSiCH2Us9c9mm8lXMFQpzzeEVGM1z5pcVlpZhZLScpxx/CgM7NMF3xE8mhujvqHS8gpMeOpujDzoAFSX5hpgm4psU05jiWNPqJ9q7ZZsfDtjIU48YhhaqhtBQw+VPhtR91Nyyk7TTmdFzK/6YOJiIhGuGQM81OFXlF9i3mViXAw8VFUb1mfga5blvS++tznPml/9zzsvxRGHDMI0Xp/yh7+iJ+2/Byi+O6kFMiOSVDsj1YlAsoQq/o+BKjMPYuPi8OTTT2H4yJH7F4AkfURHjjnU9nNWBH2pit6piTJpEKCyyQ7x71T6uGSJMwvS1Ks9tXiI6mspmR7G1iwDtZStvoqtPpK2QWRkmM0rvv3my3GsvjRIIPlLcncBpT9PDhvY0qNiWFl0tZkHTagPqWFDqKjCbQ+/jAx6im1aptBDjEfPrm3Qq0t7xCY53+uQ5JAasekZiov8UKUmx0ebYbx6cxbmLlhpMx3XbMjEgmXrbIc1zUD44znH4KJzjkdJQRGef/0LPPHfD9Cb5XwmEGo8sOm+P0NOHujp8ffxIVXw0/gWnXbmGbj7nnvqdjlpatotAOkVfXf90gsvMjuomtcTQqIxIkAGUpQWUXWVamXDLqLezYJAVMX/ngsNYDIrcB2BGkcgadxMz9Rdf+XFZ+DSi06li1tjYt1XnOMAVRHsAVkFkOneuBTH3qquYOTltiF4dXk1CkvK8I9n38ZrH32HuOhomxCmFbHO3kUOSWZJMmuPQzUkbZb1z7suQ4vEBJx/3UO2F2NFFW0fhpFa1Dwoba93xdnHIIzGd3FZJc6+8gFkUWKNY3yXB7xWxtCfkT4il4c6PUP+v2kWIyh9RuDBhx+2b5I1hxRyYNoIUkYlgV6d8IqNuyhLJbweaODRVQiK6X01JrNuWBmKXhrUN9WE4oEQL/5KG6CP3FiCReBR2ilJCTavSBVkLONztf6GaBtTf3zeIVn2+R+D1VYUYzU9oRde/RwxKXEmKe678Xz87aYL0SY9idIoF+WUTBrcLaMkLC4pR2FxOfJoEG/NLURWToHtCV3loyRj3ksJDqUfTa9L/FP42648E3869zhbthNBCfEFje+iojIUUw0OIg/CGX4XsGMkHsp0UGPrxPxr6Ei0bMkSLFm82OajNwc1GkAifcchP5e2B1uS5vT83ksGBJ+VemgfqRIaScYAFjqc5a7g630pVs6qqsV9tV4cTu/Oz2cKk5tfaN5P8CV4ImMogYLXPyEXZE7cOwO1mRqMtzbgo/SppBTxYv6yNXj8xQ/x4UfT4KFrrgo6/9Qj8PyD1+Cp+/6Ebh1bmU0mUGivImcViZYiOZ8Ht9+UOEpbnY5aMJDaIg5Hjx6MN56+BWefdIjNNBBKShj+2xmLUcLwvVkr2lxY+d5ZnrcnrctXeTuwUbXhWZWrDbjk5DQmnsZQo914SYPly5fj9VdfNfWlAb+b6X11YYtRjouofmQh7U6G3Xd01l6tVWRsHJmv3pOFBIlsCy8rcuyhw8x+YEgLW1PZ8GYMqvDsgmJs2JyNNq3T4A+2wobCCoMGMo8GQik1qqtsJUhFVRWefPEjjB41EInxMfDTcG5BEHQleI4cNQin0FscPqiXra7o2bkN+vXogL7deQTP2glNE/RVtb87ZgSu+cPJOIpxdaB3WeN3pGpUdASmfL8I/33zSxRRV48NDcPxlOaN5iPLoH7rFgTSfP7KIP8k7ZKSkm0Fh1Rno+LbBWq0DSRR+P7EibjnLmf4opQZfFP2T3UIqmmn5dMd97Mly6VtClLmXqj144Uan7UozYee8uHziKano+3gaml0+0pyjDnbk4ZRZq9Yhwk0TB+45ULEqrXvoLSSQOpTEIDsml6TSPHe9sgEzJi3DM//4xp0a9cSJTTstaOrUxnO4GeYPK76lRNkq48SRQJTvdJav6blSAzIeJ2wOufkF+GK257GolUb0Y6S7x5PGHqyBWn2YWMq3K1KSdI7QnyYzjrQQHbXbt3wxttv2SqOpjamd6uWNdfZWiuPwWRkB3FfxiZPmnj4cy7nrpLSEDPGMZupjFOGtOYUL1q+OmhYMjFWsCc8oo559Un569Em3Ua9/8fWHWBcYmiDYQUeVZY2KFfnZLDipI6vOu84A9J51zyEe558A+vpjRUUOZ9hYEZYZm0a4Sw1qigrZ3o8KiuMT3omuVDOxqaFhYrXkgnmQ/bR1NlLMGvhKqvcfizrgT42xt2oGSf/Dv8HsF4Ut/Kvhq6Zn81BjVJhUl9a66WJY4sWLjQGHFrjwXE1XhY7xBl1txIEC7OHpDiURgx/f0fbSh1kvIGNVEmnn3yk9bk438JgZfh+ugmTvRsXbeEee+E9Wxak9VcC5U/yV3dtmQ/+llCqtf4brW3/csp8LFi+Hh9Pmmn7/2zYvBXzlqzB8tWbsYWgytpaYJuFb8nKsx3p1/P5mg1ZWEFjXBPHUlvEW7pu2vyFFes2467HXjW7Lp1p3QLxkhWj59vncVfI2B+CdL47gVJba+4Uz4EHHYj2HTpYkN2KdwfUKBXmJ4q1pPbqK66071lIGJ5B8Nweot5nD7aGVMPPvO2s2313SJVYwuNkVNvQgYzWb977FxLiaVswrRqCx19epKr/CckGCI0KxyU3/BMbMrbi6Xv/iO7tW9N2I/jE7J/Jq9ijQ+76J5Pn4OJbH0fL5ERU0VC2yfAMI5dcwxWyy7apUko7Ch9tQ6xNy+8ffx6G0h5yO/wUp8Le/8ybeOvDKSjn9U0hYSwjVSPD7IkJoPeLmbOxNZW205lkzx8uuQR/vuXmunSbihoVkxLX5gZ5uTnWHS+KUwUEqGt5KWG9Ox7YzkhpqqKTmNXDKZYFTqmLZ19617xAkyahEQjxaiLJj8nepYTShP6rLzoBPnokz732udMX0yDcfkqqbDFcQDzxiIPx+j9vQoc2aYih4atBU+2Yz0AElI/ufKX1njsHJSJBJMl1yZlHY0j/7sH8OOkKbF9MmYe3P55mLncn3h7INzR9w7WPdoeUhvKjKJKDal+xrVy50p7Z8yakRkkgGYAZW7bgDxdcgIzNm+GlF3GvJxIn+Lwo8fpRwuwqsz/XqneHpIYyCNI7an22k8cBfbrj8b/daNMiBKSaqjIEKkt/krZKp90wZJD+7+1JePS5iTju0CG4+9qzERPl2E4/l9+6MIqMlZJfWIJpc5ehpKTcnmn5cxlBLZdcakqAU/iUpHgMHdQTcZrmoXeDpKGPguISnHblA8im2ivlo3G0f+72h6HCcWb3jJiWvoJ/R0gA02nT6SM1WgL94isTLB/1Oz/3lBoFILVCbXp90Xnn2349Ub4A3vXEoANhnkmr39C+B61nR+RmUf8/TY/srRDHOPzb3dfgmDEHW4VQFNmwhoI2hAepG73/93+9gxfe/BxnnngI/nrdOUE15oQR7QhMyoOeOWfdkaXh5Elxy4aR5JBxrz/dF7l5d9/Ve9o/6JKbn8DCZess8RK+f6I3DPcFvKhkhrSM20TIbpK2glGj+txbgzv91Yim5D6QAHr5NdlaWnffdADaZbCr8EpY69D1ITjpWbEpUWyk/WNs2v0y75yClSrQDA+l2mBeBObPvphqrrqYojAhEVHMi2D8Y7K8Syrw9+1Xn4FzThqDD7+ciaf+9yEZzYrXu8HDrfDtaRt4dHbidD06vS87SGc9c+/Xj8t5l2497cinX/7Y1si7T+OZt0/poT2lxZa8qc7Z7d9vFAnI5EOfmhD4xA7Gk5OTY0dT2j+iRgFItH79OnMLNXAoxOh2FSWC9aM0MRkTjc087FSLLDLGeMJj2qwFmDlvCTz6vDczEBoWbd8E2575qnSRKthP43f8peNw3GFD8N93JuG+J99EaXmVPXN7uHdUcW48Ou/K4ZBz1rRWTWl95f1v8N4X+jKRA3R1WgpwmsvzKgH0gsfvvNFwFnaZlL5bJyqPlptv2LBhh2XbXWoUgHRkZ2217nFemMEnL0OzDvVsG9P2nNz4VKdarqyYp1JaPEcVpg0H1JLKyspx/0PPo5KtWpUAgscTIad/W2XXJ93Te7JVrjrveBzYrxte/eBb3PbIS8gvKqF3F+7Ew3BueXeH6r8rgGgIIye/GDc98AKeoNQrou2kWYOh0fGITGvPQARTUDL8j5L1Xk/AhnNYXCc/jaS6stfjgUYNtmjmxB6UqyFqtDwrKy81pkgChakPRoXkqUnBwz/FJg9LNJ8S7qnQAK6nPs+z5zzIBE2TWLsxA48+/pKtMdeSIE94JA/HaG2IUbonF1l9QrdfdSaGD+6Fz7+dhxv/9gI++GqWlYPwqc/7RpGbpsXDQwB4/eMpuPjmx/H1tIW8diROWFI6EgcdiqQxpyKm20BzErRjSTTVz8c1ApEPG8hXL3mg8A2V5efI7Dv7oR3fCEp60E1Nu9yRqAKIIZ998glW0g5SxuJ5nFUbTvnjeDl7AiKxR2+LWUK1BhLyeTxNT+Ilel7TyXgxV0MMApYnLNx+q7ozsnLoWrdE5y7t+a5cV4YLVCvTjOHH+bKK5Vnl0djWkP7dbHHfZ9/MxZdT56O4VHswJqBFQpxNsVDFbl95bnwuT3R2Dphb74nwIis73+KTvfPyxK/texi2QICpR3XuQ/AchvCU1sxnABGtOlrhq/MyWH7Gwbg38lhILqTSAO6oMgXzvaskHhaRX28FOxNFow45BP0OOMDhQbAMe0qNBtAnH37kfByO9+JZ2N8j3DZKoBLZrUzVmqJ24tbArLahpIzDRE8Nbq+ttoHUKjJARqG+MxqWkEKx3w7R3QegOnuzMbWcLWvGnEVo1yoNqanJiEtugUA1W7Q+QBfMU/28WVl4lvGdnJSA4SMGWEfg5oytNqzwPm0UOQySVCktk20jBNWsWrHsJBnuBhhJB+ZVa/YjoqJQE+bB0uXrsG59Jq647Rl8/PUsbM6izGS5lL7e8URGITSlralS5SE0Mpr3qebS2solRnUOyxR8Vszj04AfHZiPHjSIqxmHwoh+jteqnxIC6G02MtlfSnvE6NHo37+/vftz7+8qNRpAn37yKQG0qg5Ap3q8tl2LLP/dyhRf0XYm4ksEK+QbephP1wbwOitLLUf4UkV5E5IR22MwEvqPRgzPutbswcqMdZauNmN684NJ2Lg5y3rI07p3pkkUhlBNz1AN8p9UrVWmczKP5+vp8zF1+gIkxESZYSsJpBmQX079wQCQn1eElWs2ESCRiNfsQwKrVhWig/H5mLd5i1bRq/sek/nOQ/+eiGde+YRpyKX/8dYt5qXRhfdlrkXZ2kXwF+VZY9CnFQxE6e3Nu63KzTD1o+lVMq61h2QHnrvynnqVBTAxbGf8VlGLTQLR1lK6vB51CAE0YIC9t1t11QDtcj+Q3Ga1mhuuuRYffvCBZaola+BtTyS0DdL232f/OVKqSlhCXedl/P99xvMdGVnA60hey14Ia5GOqI69Tcx745L4EsEadNv1YtmaBSia/53wy/wJSD7bL6hrl3Zo0zIdQwf0QLdOafDSU9Mr0eFem+esncL++9aXWLiMlVmq5S8BRNK41nQRbXpg0TOT6rXWrqrqfVbHoPp5XMPWysD/MrfmIyun0DZOF4/Eqwimp/wojPKm3uYqHtF8LkmrqaoqR1TXgYjtNQRhlEQ1WlHBv/LVC1CybLZ1jhItJv0iGfxKj6Z5OHxW/nYGAk26056K43wViCLolec7774bvz/nbEf67eTdxlCjATT+hhvx3rvvmnRI9tfgPU8UqmWx7GKGlJwyr/4JgSSXr71Hr+Ndxl/Ia7Va10OJatsVMWSuJ0JGsVMREh/6rTjMuGTFly6cZkByc5CSnIzeffvg008/ozSpsrVaCh8ZHoHWaSm2r7Q29F63MRMacChmRYoJGgxJZPqyQdTS3bwagxh5NcurUfUW8bGONOFzTUvV5HpJwFQCV/OkD+zfHRMnzbRpsOFeDwoo2boTCMNpt2nxn3qeXw9UoUwFCY9GRN/hiG3VHmHamEF2HSu8YstaFC+cQimVA483wjzeCgLpZm84TqHo0wQ760DdAQlA6wmgU3yViKW01EyEv95/H84484x9C6C77rjTPlcgNRFLhn7siYZPGyf8TIbqkmE4Vbyma06nn/o/SR0CJpVM0zNrvS07Iq7vUESmd7DZgXybjxw9HozCQOT8ptShKiic9TkCRbkEVI19LvvxZ57G99OmMyBVgoZg6MKqH0R7GG1Yv9E2LqcYxRFs1UfxUMvPZDnepIrZxDzokwsCjdAjj1P2UicCb8zBffH+5DkWZzglU5uWSTi4b1d06t0J8RER6NYqGdN+WIFHJ3xi3z+t5vtXhkXipFovuvmZivQeM/91ZA3O85UiWmq22yB41GCSUhFJ1aw0QyglAyUFKJzJRpCbaaCK4P04Ho8wv1qtIRW3IyAIQOu8ITiZ/IuXJCSI/v6Ph3DiSSfuGwCJgUr46SeewFNPPGlSItoXwKchkfCrw+JnMiTQyDtSwfKo4N+ka/6epAe5FUFPw8/f3thExPUZRgB1QAjdcbVGxavC/gg8VHzayMBfWY6KQoEmgEB5MfwZa1FbnA8P9f5Rx47F5Zf/0SZTaY2W8l9SWkLglNoGoNpLpz0lw/9otreiC+l2uq1jWYqZwjt0o5cx3sVUK4KwbBHiDaMH98HhIw5Am05tEJsYh5jIcLRMiEUMf8+cuxwvvfgBPptOd53hD6HEuYBe6kiqHfVl+egYyLtk0VHF9jIW5djK69DUdght3xMhAm4040ptTQPea7ZOgAAomj2Jtt5awzMxgWtCvDiN6KlgGpKE25N4JSm6jmmcTD7FM+NxiS3wFBtVU28LvMsAUjBV5Ecffog7/3IbKktLbSzs49BodcAH8fPjwsi6UcuWuJXEiqPN9AEL9WaIH/NZeeHWysnYihLE9zoYMd0HIywu0UnL3tdjBzw6PGyFfjK0qqQQ/ooyA5CTplME/V9blI+arDWoyN+KXn36YtiwYTjplJNoPA60rwNF0Au66Nzz8O306XggOgEXVJPVEgp818k9/+eFNoQo54+poQFMo4r9T3UFXWqNvFPrhIXi8OED6KElwcvK8bIyvVST7380BWvovkttXR8SgbMCYUhkXJIUpUQNLS1KazYj3pNUm8B4n6FnGUHbLpzlr/U7n+HUdjGRLVIRwQalGZf+siLkfv0WPHQIxIerCK5zakJBGWq26PYkvocRpBuJthOowhIofdp16ICXX3/N9tVuKukj2mUAiaReVq9ahYsvvAj5W7cigt7KazSi42RDUIqoV7qOgj9tuxJeLFQvMlXESgJHc/kiWAh5QXJrE3oNpTHZz4EC41LL2z5bela6dTOqCRrNV3bFsMLVSSge8pLA58jPQsXG5dZr3rlTR7Rt2xbDhgtMp+CKyy7H3IUL8UxkC5xS40UVAV0mtitJ6/5lajxHUd1EBFguRvkxgfSQvwI5AhuBX1RWiQDLr8asRiIJFxMbjU5UPbcSPIdRxGiyv/ImG3ErwaLfVkYmJHU0je9eyTijqL68B4xCCAFUVxZSFEEUnZROABWbivZt3USD2IvxlEBjmccqhm1IAknaqxjfEO9/9lchhjwZOHgwXnnD2QCsKSVQo2JST28E9bz6TAQMTXqfS7Fs1q28o3pkKyUUhud/MMxttX7Mps1UyQJroZxEeWTL9kgedTIiXfAwvAseYyTTqy4vIXC2oGDjCpM8aqXq19BzUf2z9Z8IgFQdIaltEdVvJOI69cTm3AJMnzYNz/7rWZxx2ulYu2YNwrSBA6WBKr6AwC7n7wrms4JA0llbEBfyXpbXR+OeKtFHiRESg4sJjgGsvG7RUTZZ/oi4eNwcT0mWkIgYpr+WRjXNGxSRs4qLpeKfAxy3jCJHZTpr2ySS6leElYXnioIcFGesN2lbo2+DMP5kPtGeQT7ahE7Jf0oCjzZk+Ioq2F2UqOmy9iuYflNRowDkJK1sOK/JU1nBCiAfnNv1iLxny6PBx8r5gDaJOsWiGIYij6+HIqHfcCQedBTCElOde8ZoJw0dFQW5KGGLK8vehOpSAcdvAHES2i6x7cjiUyXQNfa06oIoGqlRXfqjitWlaSh+xaVwTnDLvpiu2NWiVTUGzGAgjfVVEVTtGPBKXxge88RgMKVTKz6+uzYCF/jDMJ6gOo2SQfQwS36NpwJvhAUwzyvLb1taLuC1U7+2rotR42uIguGcBrQZfvJAE/5jWLaWvK8ZlTsivaqZoQtpv3l5IX6q0bu8bUpqFIDUAtRXkpTUwlquilDKggTL+iPSEpwyPphIHa9WYEF4Do2MQdKYcWbveCKied8pknp4VfEyios2rkQ5VZC/3Jm4LqZb4fncrYAdkVPxThj9rzc9UQRSWluE9xyC8I69VZBghfJ/pmvhg/aYe7uOLE3H1thAcfFIZDXOqi3DF2w+uXxWSOkh96CYzw8lKOTx5LP1jA+NwLiAFz1pq5SyETHoj0jOmAxzOu7OdZAP9UllUVYkibXZVCUjOYjqSLLEnvHYnlwJp46JXDVuXuvP/RxCQ+/sCTUaQFqw36NnT3goEtVaBSLL8/blV0bdVqJC8PAmpKLFiBMQkaQ2tO2+r7LMxHUBgVORn00PL7h6wSSOQ40tvMK6zFQ6NnOA9oOHHp4nMc3Jrv7bkQSoR6EERgEDZxEsYf5am2fTgpW4nhWbQbBU8tAQzIpQGt5MqxfVSzvrSKLnBx+9JSb0k2R0T1XLctnDn+ZD+ddz0JNSh2s57ceRRJ4ByC3bduSUWxLKaXQCfjzV7MjRo+ueNyU1GkCygXr06EFPhN4LM7OaTMhmLFIBdRUWJGU2Qf03KhS9ibDEFITRNpGhbKUkI6TfSzI3oLIwx8IYK5uokIrH4lL6dof/M43QVp3ZAIJzqINpqaoaIr1fS8mjptKZgDifFXhHSBgupEem3uWtBI/e/IbgeZ6qWksXi3jkU+2VUfJIlbj5MECo3PynZUQaGy/hgfDgRLjt+GfXlDg1uVvsswa9aftR4Zt02ZEhLM0gfk9hvqRQ1Z2QkJCAfv362TPjRxNSowDkUnjwm6Yq4CJmSp8gEtLrA0ieQAxbwXFhDqOlvyu2rIEva71VmsNUFThAb8bxPpqTnPRYXOZFPdtK3KdKI9m0EUqVhkhl0pp/vV/NqqvkOz7aFol8FsP4HqJrfUhINf5C4z6bvJDqXuwLIJsVX8SKLmL4Ct4TZ6Q47WBSGuYo480yXccnMY2fdsbqHeML+SNT4TTGmSKc8db2jVVkeWV4NdDZaigEmepBBrSGcgSgpqZGA0jI79atGxITE50C8lrupBVH52DB5OpG8/cRbL7y2PSev6IU1QXqOnMYqv81LcMbEWmV2NwgsvyqBYupYRH4XsuwKUGlEmolQhsgqxCpmmC5tHnBapZtEis8mtmtYbkioqNt6fC4352C448/HlFpyTizuhjH11bRXvLR7fbjOZ7f5PGWHX68TjC+QykVqjG6Fmnm4dYn5VFpW088AUu/Eu3JS3UQWika4JWyqHxqwp2N3DNvmlWgT2RKczTlXGiXqEqDnNlFUnBNab3y8ssx5bspBo5jKF1u0l42eq6Mq4UQEKF8ps6sG2qqkRlMRoOjSXTdWYOOGOb9EvXv0EVXR2Fzk/JvR84m+DavwqyQWNaW37Yd3n45jcIZgIJ5D2cDnuOtxT8YfiPttBNPORnHHHusTTNp164doqKibOl3Vna2dRksXLDQNliwvi3G49UcJpZRvfgB8lCiSI5EWI8hNnQhxrnAMDVPHvkz1qBqyyoMo8q8tzbMGqVN4OPf9iSeyy5dTnDeSSM/m0GiCe7b774bJ5x0IsJkdjQx7Z4KCw9HQmILq3yprnfIEPXvOGV3mK3VGbIjO5EPI2g3uCgNlFGw02gOsskxxmncOjKp+UkVRKxYxWnpywxvwK6Vdxcoovrg0V0JqMkEz3k0aDdRPfTo3QtXXnUlOnbsgK5du9qnysPZypOTU9ChfQc88Le/4cknn8CA/v2tUrv0HYwTb3sYJz32CkZcdTuSu/dCKMNrzlIgd7NEu/GzPtlVVQUBGkBb/kwPaN4V89UAeERSbWqC+g6ttv3S+9plJF6fRW8majSAxFRJjtPOOMM8MhUlgmBZQ4PRNCxz7VaEwqq3uRONP1odlliADClZNguhUbHWYqzVhEeYjRRkWbOTzT8igKIjY/GArwLVvJZXU9f6lX/9Vt74U31YL3tqcJevEq0jo2wn1YULF+HOO++G5hCJHzHkRUJSMqZOn46cvDxExkSja/dutk9haHgk0g4ahUCLFHMaUjp1xaHX34P+p/8BManpCGStQ03OljoQGWiVPhtabXkJWlBq0e+lWtqWx+3JAM+z5ifRyqxzLnv26oU+ffs2i/oS7ZYEUmaHDBlSZwfJLniGNoHTZbaNHClUi+GUufFsHlZ4GoOSQjUabuC1TaSKjqctsO1LyM1NVujIaIQQxNkEwJzQGvNWNPlLKlnrsqL4WxPb55LvF9ZW439VZYht1Q6jLr0eXUYeYRPzv/v2O3z91VdOK6dE1odmbr/1VvtehaZPpLVsZcM/YksY1ZFJOoJE/AtQ7XUcMhqdhh9hAJRUrpWRX0c0gEuLEFKSj2Q2rmGU4mWM58cc/jHpWRWjeJc2k9vTpfXwKSkplkZz0G7HqolXw0aMsIyp9Wpej0axlW9JFZG1Cv7Upxr7UwppKzx906s6LxPlK+aaAa1JY15t58v77nu7Q0rLPdf/3RDZXYE3MsY+7DKFlRxLT0teYwIfZjPEVJok99L4PZ8SqoQqqw1V0Igb/gpP+y7ocfI5SO3WB7GJCXjiySexedMmlJWU2EeAR4wciaPGjrWvKWu4RPOFpOaj1UCoWlxS9YYw7SpKGIo0hLTtghCmo7w5fCPwKK2liBIZOJL39PbOJJBoExuthph1rd7nkaNHNZv0Ee0WgAQauYR/uPQSxFF0qzLU0falRrj42y2knUPljYXgpBAvSqQSeE9GpJ8ty1SEheT/AuIeNJK6NPUfQWmVEGyF25PCCvTe1DY2bjaP+X6RHtmzPP7q8eNmHpfS1vmaUqJtfCIOPPcKHHjZeNosUQjX8Agz2msMjedifaLJY9+GjSBYWrVqhWeeew73P/AA4uKdzTfLy8utcUTExjLNbQVUp2bhlg3IWDAHnrQOjHObEa1ca+or8jNRqqkbdE+0A5yAuCPSW7I576e0VCqKp2XL1hh7zDH2u7lot6tMzBF4evXpbRn081hIEJXw+NHyZjYMtaK2bD6D2RI0tUOGcxV1vr9IO6xSfGvQL1pA3H0EKT9qgzXlpQhsXs001O/xY9e4Pll7JXg8yW2whq39X3St/8fzO5QCK9k44lmEFolJGHz+VWh58GhUs8JdPCqlpL6D0HPMMagoLMB3U6Zh0cIFll79vhbxRQCqZTpITDYj172v/K744j3bKCK0RUteO3mV+24drzSua+nCCzStmbAa3k5hQJ4vo8G2lukzqDk6J4/7XfBh89Fu15jEYlJSkolsQzgLPoMtP5c2hVOZjkhVwdQv0ZKX49gSNX1Ura86l250cZ5JHjFdc4Kt5HtCjDdQmA2UF9ukLOFxR2pRBRdwQ9t0hbdFurniAY30ayIbSR+9HXLun5DUs6/ZR3LxVU4rKyMO8Lr76KOQ2qGz7Vj7zTffwF8pvw5mC0mtiQ/aT6lG80FkcwXBJRc9Y/E8rJ32FcJadUStN9QkiPOQ+SVPail9ymr8OI7P2vG2nBFLezsyXvNQ3J+owTCMohBdcNGFzrMG3msq2v0mT1LGhg4fjrbt5GTCdij7iBao9ckFG6IZjsHL3hThPaWPVUJvBALS/yw0i8w6kS3ltMzdIXtLFcQfiiOM6iZaY26s6AbjZN6dnmnaYB37wKvJbN0PpDRIt9Z+0MlnI6lPf4mEehVQryIIuNBufdFpwFCktGiB9ya+j1mzZmEGvbCLL7gA42+8sd7XAzX44EgWUXVZKZZMfBnRrTsjJMZ2F6hLw35rL8fKcvuK0YEEX4qEU72k65PeUyPZyOfq/1G51LhPGTfO+n2ay3h2aY9iV+Y0xtKtRw9juiL7iKJ4o+qFBapfcVVkYA+WrztDOWosDJVb1jgfmXMraTcL66Zi6QmQAg3BERnXAt4oZ6nzzkgbi2uAVXsMBfIykJjWGh2OOMnZlDNYsfVrUHlV31V1QS7SRxyO+KRUbM7IwKzZs1BVWckG1Q4dO3Z0jFfmSTvvO6SchmDDzG9QXlRo0q92uzLrS401VO0+Nq5eTKMnjXvJtW2p/5gEHgFzNsGzgdey7WRaHHb4YQagbeBvHtq9GtuOrrv+eqcXmZnVlIPHan2IslbjZF6F0KFhg0PIsFje9koNqFORHpCCSa2Fx6hvKCi6GkEuiwQc8+YEJJIYq7Vh22D8Y3LzZdKBksi3dqGNSfU/9TyrNEk05a0hCaZbWngYTiO7w8FjEBsViQ8/+AgdO3XCE888Y4Z0QmIiqzUErZLSyGg1sBD4Skuwaca3NqBLQ8WR0EokSFLntXTftQVMb/JqKG3pStZS/TAuqZFqCE8S6hV6eDIVVObetEsHDxnS7NJHtMcpqGDdunfHsSccX3e9lBXynTpT1DqCzBejqlniIQF6ZSw169q8sWq2tpBQtRRPsC/ICd9YMvZKJbFSXcTIrlB0Ov8sqR/GT3uFQFo48RVUz5+BQGWFgxQeApgTsRO5yqk8S2Ik9j4AUbFxyMvLw+effGprwiRVtR1gWUkR4vsMMEmjbVvmvfVfFJdVIYSqUvxxs6ZyS2oKPIG8zUhgHHRPUOx1gNcg8f0wRnFfGG1P/lYoaYLjTzrJ8Y73AjUJgFT4y6+4AqnpVAO81odTPiG7Sogah90MR8QosQgW8yBWcimNbbDCfNkbzZW2qlGF7EJd75gUCyNQJMF4LL5diVPTO5gngS2P7vXkl5/G/BceRfaMb6iCGAElpDZuMjAFXxHJ80ru1B1t+x1oamnWnDnYvHGj3V+yZAm2ZmYhqVNXkwYbZ36HzEVzaDi3t3fNs6pfYL5TW5pv9pUsozH2pZ4a8s1piO4hT00uu4T8UhqcE2lsu2Xs1bsXTjjxROdiL9AeA0gk5nTo0AEnnnSyFVDTCKawxeawVahrzC24eEUlhWNpGBZQVHuovgJlJaa+bCiBcSnc7pJiYEqMT15N40idmuFdB9EjkjRkHRIsG1cswYxXnsV3D9+O4hmTERalHV9ZbXT1lZryqj4hVWSPQcORlJqOGTO+x+LFi1FBVbV54yYUFxUhrGVblOXlYOmHb8ATn4qQ+BQDjrw7l6zU9AJr2KACBHNvPovRY2tUKhcf8yw1Fc77icxfola5EHQl5LUqUvl59PHHbeT9R8BsRmoSAIms3+Hkk82AFGm73ztDxWxJ2iAoxAgeKpq+bqjrQHUFaipKjVFeek5eutGOumg8aS5OiFZx2heUd52sggQG2ioRPQ6CJ5VlIKBsPZkkx8plmPLac5h23w0oXrUUVSXFpj5UBAG21leF2ANHIL5NR5QWFWP27NmmvkoYLlxqiaBb/c0nqKZLH9auOxuLbCtK5CBfrHHxT3zQ2rAqNq7DWTVaueEhUPRc88sz+Vtr1V4iU8/x+nFsqA9fUUJpyrBiOvyoI+s6MPcWNfpTBzuj5JRk28Fi6ndTjEH5LEhVKF19uee8NuiIKfy9gtDN4jshAR/CU1sjNCbBvBZfRdluTzBTGrWyW6orEdWJFgTT8rFStDjv52Jz0uMLBJ8meIXSK9N0CvgqbWcQjZOVFOZj/dxpKFq9HL7CPMQTZGFpLa2BBKqrEUGPL3fVYsyhO3/EkYdj+fIVqA6LtRUSyz97F6HteiAkWjI4mJ7yy3dV3+rGqMlca5PoO1Nl/i7Ei2Tel3T7wFODz2iO/zskAO0fMJf5Ee80m9H6qCzv5GdGJtasWYNWrVtZr/ju8LCx1KQAUoYP6N8f06ZMQXZ2tom3xeROW/7qYgHIEB5pvFfg9eBbgi2sqgLhya0RlqL+VtY9jUjt+2x9NI0kVYL6T0KqyhHVsVejAGRSgPl3eW5qNbYFQpNo7EbHoSY/01S1wpQSPFtXLkbm0gXYNHc6Wqe3gTclzVaVFs6ZhhLmYd6cuViycBHaHXc6Fr77MvzhcQhNs0+oOAfjcSWFPMea4lzUZK1HMXlyMlXYUUTOs94aPFjrx9cEzGLCTpPErJEoH3zXR9DKa1VnpWYdauBWS5aysjJtLyDNBWpuajIV5pIK8veHHkZammNQy6uZ6AnY5Ca1JpEkkbwHqysygCW3sGqaYmmQr40me0/xCQzOrUZTfSCxqqxvSD3VEQPGwCMARMZZH5CkU0lJIXLXrcJnT9+PD645C9lff4iErj1NRW3avAV5BQWY8exDTp9PcksDoLJoZa131lq32oIck7wpDLOiNoBTPT5MoK21hW9IodsMbuZNcbRv394mss3+YR4Wr1iO5atX45BDx9iENtGsGTPx+aefOjMBmpmaVAK5FBcvJnswh7aA9P9WFrySYvmIGud7GmLGGnoPM1RZZLY72V6emkS4SYwgcxsia7l8rrVimrEXEuZsNG4tWeNrlaWI6txXIeErp0qklHPJYm0g7u0r1ULqt9LSlTob45KdDsfIGDY9gkHSTvkgaHVkEkx5GRv4SKt0CUKGqdHwiPYAiktCoJgelta4aTqL3PWSPMtvTW4GApJwVOFy9cUvW9DEs1q4QKM5zUcedRTOOvdc83i1TYvsHXUWyv487IgjTM3OpvpUX1JOzlac/LvfmVmwM17uKVESBjnUxCTv4+ILLsQPP/xAltAbYypns+VeG9BeNcAKmhe30v7JoAsakZCGFiNPMDuoqjgPZbnU8ATWjgruZlkAql4yjRwOpXHak0ZwSwJqNcBKSR17voGzLD+LcRbK8LJ3pNb4phOHxcNDQot/jo3GX/5K6BNStQIewVxLt5qoZmOgTylX20+JyXzbRPggKT43v/V/W3wCt87Mj663kZsHYdVJmz94crYxjoiMRFxsLK678UbrWRZgXLW0fVo6a6rxwYMG21nTSd54+21060Gj3c1LM1CzAUhUXFyMcXTtN27cQIbU2BzpGzxhOJrtKpqpXh3ix0xWggqYesTvbZWqKqho02q2XGdt2PZUn2H8gdrSYlQvn2EgCk1MtxHskBqfbV4ZGhaJUrrFVYU5BIAz10bo1Ui35tpAI96ac0ObS63WKtlSCZIl//PMV352p5Lqj9ybelP6POIJlIGDB+HSyy7H0OHD6u4rDQHLVU3avzFS2++R3Oczvp+Bs04/3SSTwPMRVZmeKf7moGYFkOj777/H+OuuQ87WHPPQ2rMgN9PDGEVddmmYH9NUZfS80o4+z7wxif+C9ctpD1T9pFLcrOq+ftlBledbMdsqnwHsOXUHvASjtsDz006poUozKcLnNuswWAEixaVDol5M16HfimlnkHCfK65qGrM6DISMS9/BsKxI4hgFYwqm5VaopIRIeSotKbH7bdq0sY+ijD700Lopw3pH00Jytm7FxHffRQFtK83z0YaZisMFn0jfMhkycJDlJ4V26NsT321Wj6zZAaRVCi/+97/45yOPmtegr+10ZWEm1ITjZhqKXzP5EIIg/ZgLaAcJQF7kr1tqmwn8aF5RkCy7OqqrECjIhj97g6kT3XeYpApiRYqpTEvi3G3peq5FduktWxIkTouMiIg0tdChU0ccdNDB6NOvH5KTWtizXaFCqurJX33F42vk5+WZ1FUFMzECmACQN6eDDcNXkm/2mPKTkpqCDz/5xOLQO9rxRJtfaarwCy88b0ud9IE45XnJ4iW45647MZee3cFDh+L6m8ajZ8+elm8XGPWr8R8P/B3PPfusNYRzzz8PN//lL/a7OajZAaTo5WY+8tBDePXlCTbCLVd1mOwWPp/D55IQKYf/3nYm0xeP8ymB/FWVPxG7BhK+p7Gh8tmfOdcyEoOVpO+d1vq0CYMj6vWl4gGDBpkdoXuaYnrQwQfjpJNPDsb4U1KcdaqFv3dIqjg+l+GrSqwoK0Nhfp4NX9x66+0oKK9Cq+MutH2rFacGPitWzkfh3ElO3tJSMW3mTPstI/j9997DpRf9AUOHDcWjjz6KNEqNGOZbXSLXU4KnpaVjxKiRNnAtKSne1OeP8qB0RO/S9rnpxvEGmhNZ1nvvv6/ZeqebHUAiJaGv+T391FOY8OJLJmYliegMmyqQvRPfbyRieh5o0zyKNq+Cv7LiJwVWPJIsYTFx8BJgAo1isDOBJTWl6SEFC6Zi6MC++OOf/oQDBvR3DE8Vk/E11GJFuu8+awyjFY+OnKwsFBBA2jrvjjvuxtLVa9HmWBry2oFVeeRfoLocWz/8j4FGna7f02MSAAUE7bt0NfObnZWNm6nCTjzlFJQyrsmTJtnbAwYOROs2ra03W/mLpMsut914Uq9M+v0137nuqqtRQemr2QH/eORhW5mhLpampuaxrLYjFUri+Iorr8TZ555j66ciZCe4zwmAas0klEGtu+r+366CXZJaqi4pgo/veOj+q39FnZARqW1MgkV36IEabwT1fzqGHHyQrddS+gKeKkq/dVbrrH+4z3Q0luw9iyPERsGjYqIoxSR1WBqLjwfj98r9D5ZLX3XeuHGjpSuJ16ZtW3Tt1h0ZGZlYMH++xSlj+iS64pI8P8ybi5tvuglnn3Emzvn92biRUunNN97AfHq5kvD1qXfv3jZDQuXKy80lKLN2yM89pb0CIJEYosq8+NJLMe40ekgEgArIBw4TbeqEM+4jQ1r3tye3gnWoh1mbL5VkbbT9c8ryMlGhXckK84hDZ7DTNlUKxr8nANkVcmO1BYY2u0Byw7mvNP36jmpeNmoFfOalkhJ0zuw5Vl6nzB4k0j5zw/to47l5l1RbumQpWrdqjUOPOJwG9iH2W6P+a1avMYkmckEidSXpJGBKYm3c4AC1OUC01wAkUiE0yerqa6/F+RdeaK3VNmUQ26R+GEZl1DJft0IaIjFCQx2Kj9yz2XuVBbkoy89GWW6meXCa47y3SXl3JZo6UCsLclCauwUlGetss6xyXnviWhgwKssraN98FywL7TPaNaPHHIKo2GhUEGzFRVrO6MSnla9/ueN2jL/5z7juhhtwPY/xVHNXXnMNTv7dKXU90IrHjU/SS6TdZGfOmOHMzXZtuyakvQogkSo9ni3tT1dfhYsvu9R+S1Ko/8dAQwbYDqUWumESg+qTTexivIpbj+TBqNVpRLy5Wl5DpHzZwd/mAVIaqhPTR0DIPlNeQhNSLKykRgE9OJFb8V2pdqLolhcWFltHrMUjj5LPxSMXnDp0bfcYp8gto87VtH2OHnsU9JlxOQ/5tM0a+uZHU9BeB5BIDBAz1f2elp5u12QjC0gzSF3FqnQhodHkVEQEbSPZBlOnTG0Wpv0cOVlnujzbz2BRlBfbvpgkUPhpB2ndex2p6LyvD8MVa8qIyeQQLFiwADePvwnXXnUVrrriClxDW3L8ddfjphtuxGuvOl8hdElvlJaWoEuXLqjRhFrGZ2N3u8POXaB9AiCRQCOXPuCXvSKS6FWGKIGcGthtCqWXpr6VwgJ978epuL1KSo5pSqoG0WSkylTjEKn8Bfn5yMzMqMufGlVsdAy2ZGyh1MgnuPz2TpvWrXH8iSfQdjwNp552uo1xHXPccZQyY827Uieky8eKUmdbQPW/KWXJw7T0NEvP0m9i2mcAEolhYrCzdsspnL7eo2tnzKpxZPUmltmsQsa3G1NCmoZkQpOCxryRC+JgnlR2zaHesG59nQRRH1hsbCw9pzyUEBT6SFwJDxnF2n3/wCEHYtiI4Rh9yCGU3ofjyKOPso+nmC0pu5FlzsvZaqzUWnz9kG3Vq2fPur6jpqZ9BiAVViPM6hHWR0aovIK9z3JrNSbdeARpOMP2qg6himT827u3e4OUb+vbYV60m752N7P7AjTJlQKSCOq51jihKlplLidoZNMENG5Hm6WMUjQnOwu5PPK2ZiMnMxPZlE6ZmzdhCz2wLXxXR+aWzcjQvU0bTfKoAU6ZOtUAo07KLjTCRb86CeQVo+mya6BVXkugsowA0gZMjkfWaAq2MPX6ysDMpxEtNbA3SZXXIinJaRgayQ9y2K26+uWSIa2vCAoUAkQZbRdVsoSVpFL9Q2FVFu3qIdVfzbjVIVtOF7+8rNx6wivKnM+eK+wMel4CaXRMNBITW9SpyaamfSqBJG0khaxw6gOqqnAkEJm0OyrMBlRFPMXEJ9hy440bNlgFNDdZEXhWWmkpqVQhdAzUayw01yO7YmAzqPkn0Mht1zih3jW+8Kjku5rOERERbpJEkkXG8Zo1azFv3jwsXLAIGRkZdVJGZ/NG+e7q1auxbOkyS0OfeOh3QD9rUM1B+wxAKpzEtT4RaUxVK6vSZ014tbtSg8wzCg1DVFI6Vq9caXaG0jKQNiNJdQr0AoFG1LVbh800/ElLIMvrbDRQjdFYljNh0qjSRt3Vr/P4Px/HmaefiTPPOAtnn3UOLrjgQlx6yeW4afyfcc9f7+XxV9x4w3hc/IdL8O2339aVT52ODzzwoHVhiHr27lU3KNsctFfGwhoiMWxrdra5ohK3aj0RrTsjrtdBKC2U6vGZHaPsNabwVhyGD8nbgrJVC/DK22/bCLeMyGYhpicG5tH1Lshz+p0yMrNw3TXXoig0BuGdelvjcEkba/nXLqS7VGJgGzhoIA4eejA+++QzbN2qL2I7H1wRf2zZsv6UBo8BA/qjFT0yGcXDaUxL8og0o6C8vAyL9P2PZ561eFRe7Q391L+esXC/SgAVFhbi7jvutA/5itT5Fhodh9rIWISmd4BHKxiYPRVdmdwVJpga0Ih9QRbKVszB8y+/gjGHjrF3m4WJQQDJ3hKALL9M57xzz0e234sIrQ4RgNy0+dy3cbntvuFcBgHPWLp262GbYbZq0wrxsfFmw1QRcA///UGb6tG1axfbcUyDw95Qr6k1eWtVlNw6r1q12hwHpa9NP//z0ou2Xk+gbi7aZwByGf3fF17A3++9zypBlW/39ZyHN72j7Sxv0zUY1n3HPTdEVhyNpRFAFcvn4M+334EL/3CRVYZjJzQ1iBz2FVAVyYVW+rJdfn/G75HtC0VE5z6OBOJ96xfi2dkTcbO9J9vkhJNPwh133WWqS/msT5JI95M/7771lvORPCXHIrh8qE+KS6P0vam2/nr//bYdc3PTPgOQSIDR/Jl7yLyF8xeYVPoJhUUgNLk1QrVVS3CDcBnLbqa3B4QVh258TV4GfGt+wIgxh+GxJx63/pXmVGPayiWXrrbKoL0jT/3dqdhcUIqItDY2zlejL+6UF9kc6/qknviXXpmADh07NmjoikfqFJ1CO2fxosU2CKsSazRfEkhl0iE+6FtgGk/r3Yeg3Uu0TwHk0pbNmzFt6lS88PzzyNiSYa6tyKARbGkhEdFAbAK8LTs5wwHWIcesB7Nf1yJ1FqiK8uFbuwB9+/bB8y/8p27MreklkKjWBj/VXyNXOzk5Gaec/Dts2rTJvEx5mH4/1TNdezd95VUdgKeefjquveH6H80u3BHVryoBS2B1Jauoecq2c9pnXlh9ak2vRdsGfzZpEt6d+C6GDhtmo8ly6Q08ZIxt+ZaXiepFU6gC6JpXlFrfEblXBzIjhZfKINi0lEZ9I/roXHO5sQ45c6rdxZBuXjQnyFelVbYe2iRt6kbNld/OnTvj7fcm4tbbb7N5zbtS+QrjHkpPxrGTbjPZd7tA+wWAXAaoVXWlh/HSq6/gsScfxyWXXWpb1MrVt/Ex/aN949+yGr5lM+DfsBS+zWsQKKarLtDoUOVJEGnv6fAoqpUc6xMR1W/BTUmKV8MQzGTwjvKpTS7TcfY5Z+O6667Fs/9+FkcfM9bChhHMf7zyT/YJpubK096i/QJALtX3FkaMHGXroZ569l849bTTbMaeupit9bGyzMUvpNGavQ6B9Uvgo8dVvWoe/JuWo6aI92lzaC2XXNoF83+wimrOyvJ6nbEmNx3Nv27VpjVV1Kk47vjjbKLZqJEjLazKEBsXa+fm9JD2Bu2XuXcZK/GspSt33XsvvvxmMo45/ti6JSr6c/W/9lcOqS5HSGWprfL0rfoBVZq8TkOaMsm+1Kx3moNcwEhFCtRKR7ZJelqqMVeSUZJV1KVLZ3uu68wt9dz4XzDt9/CXhyEmi/GPPf44/k2D+M+33mJrwdWpJu9Kz1V5OjQqrW1itNGB3H9VrJbFFBYU1kmIpiQXmJZHgZm/BZCkFknmKWmczw0jKSTQC2CffPzxLx48omZZG9/UpArQIYbLwzmAUkkrNkcdMhrde/VEBO0dLeFp07YNUlLTGCYJ7du1Q0V5BSuRaiw7GyNGjbJVDW5cTUmCgcCrWYQalhBoly5ZhrVr12L0IaNsLZpApXS30MvUfT/z9YdLLnGA18T52Zv0i1LAkiA65Bon07jWh0TOoPf2xNNP4X8TXsaLEybg9bfexFv05Ca88TqOP+F4m0ujVQlF2lWecTRLq3fjDJ6tLyiphS3LcXqG7bbl/eixR1s4zUQsLW0+1bq36BdrwamVy40VIJxpDpoe6qxQFakSo+keq+VrMHHxwoU2wbw5yAWBeWL8qTRTKAVLiottZawmybmk71doQ6ri4hJMfOsdu9csoN5L9IsFkEsmkWT3BHtkXSmlQ4OU2qdIHXaffPSxbXqlymqOClOcYVSltmciwZuQkOgA22ygbWm6y5k0gezbb7/5RYNH9IsHUEMkiaBK7N23Lzp17mTjQ/r8QFVllVVYc6gNxemOeivtlJRkA7GT0ja7KyYmGqkEtR5ozZZrG/1SKaSsTJ9+/fWRKlFzax647z58+fkXNmHr/gf/bmvFXfe/qciVIpohmLlliy0KzCvIx0XnX4h/PPQPm8+sQVEBRfOcH3zwH7aoUKtHH3/qSfMmf6kg+lVKIJFAoqGDMYceakMF+rjtN19PDtokzaDCKEmcjRaCN0hKRRJGYNZZBr02iXKHNJQXDZT+ktXYrxZALslbE5hUwZp/pIp0xmCbrtIkPSw2i9O1d9Qv5UF0VLQNxwg0X03+BrfcfAsWLVxk70RFRu7yONj+Sr9qAAk4HTp2QL/+/Q1AK1euxLy58ygpmr7YAoHUYliYYwdpyomM+1tv/QuOGXssTj/tDNu3Z+aMmQZkhdFYmNTXL5l+9RJIKxL0RSHWGHLohW1Yv87uN7XaECDkxmsymRu37mlO9hbaRfIA1SckSSSgnXLqOFxzw/UGMoX7pdKvHkCqHO0RlKRdx/h72dKldQZtU4FI8ejQtA1bZRK8L6DocI12qc9LLr8cL7/2Ksb/+c9o/QuXPqJfNYDclj1o8GD06dvPWv8rL0/AyhUr7b7IrfzGkvuOA5xtg6g12tCA9yVZbE4T77ds2QovvfIKvp8zG5df8Uf0pUR0DelfOv3qJZBIldijZ0+TDtrQYOvW7OCTbSBzgbSzo3449z2RgFNcVIicrEwUFRYYeOJi43DggYMpdbRS1YOIKMdgliT6NdGvHkCqMFX4Sb87BWmpqWhBVXbnbbfTmP3e+olcdVb/2BG5IFIY1z0vpRu+ecN65OfkWMeg1JV6xEO9HtsHkXCz/iEtY/410q+2I7E+aUihrLQUf77hRvuSjipe9zQpXZsVjDv1VBvNl+TQDq6aYuv2Km8PKK1blxQTKLSppkggKS0pxYYNG2wGQEVlBb6ZPBnTp88wAGu+szaIOvb443cK0F8i/b8AkCSHplm8N3EiHnvkUQOTS5IkWsCnb3qosrU6QupOla5rOwQkj4xuWI92pTaM4rvOZDGptBoUFBRi+fLldSPses8l9Tg/+PBD5rb/2uj/BYBEkjbz582z7YZXrVxlEkjk2jP1JYN+u+pqe2JIkziylPW7PrnvCJRuHJJojz7xuG18WT+NXwcB/we/jPlo0GmGcAAAAABJRU5ErkJggg==;" vertex="1" parent="1">
          <mxGeometry x="580" y="45" width="63.4" height="70" as="geometry" />
        </mxCell>
        <mxCell id="AVKwIdNILiTaegCWu8nr-39" value="" style="edgeStyle=orthogonalEdgeStyle;rounded=0;orthogonalLoop=1;jettySize=auto;html=1;" edge="1" parent="1" source="AVKwIdNILiTaegCWu8nr-5" target="AVKwIdNILiTaegCWu8nr-3">
          <mxGeometry relative="1" as="geometry" />
        </mxCell>
        <mxCell id="AVKwIdNILiTaegCWu8nr-5" value="" style="sketch=0;pointerEvents=1;shadow=0;dashed=0;html=1;strokeColor=none;labelPosition=center;verticalLabelPosition=bottom;verticalAlign=top;align=center;fillColor=#505050;shape=mxgraph.mscae.intune.user_group" vertex="1" parent="1">
          <mxGeometry x="280" y="55.75" width="50" height="48.5" as="geometry" />
        </mxCell>
        <mxCell id="AVKwIdNILiTaegCWu8nr-9" value="" style="image;aspect=fixed;html=1;points=[];align=center;fontSize=12;image=img/lib/azure2/compute/Kubernetes_Services.svg;" vertex="1" parent="1">
          <mxGeometry x="541.4" y="169.99999999999997" width="60" height="52.94" as="geometry" />
        </mxCell>
        <mxCell id="AVKwIdNILiTaegCWu8nr-10" value="" style="rounded=0;whiteSpace=wrap;html=1;" vertex="1" parent="1">
          <mxGeometry x="503.4" y="241.53" width="140" height="190" as="geometry" />
        </mxCell>
        <mxCell id="AVKwIdNILiTaegCWu8nr-33" value="" style="edgeStyle=orthogonalEdgeStyle;rounded=0;orthogonalLoop=1;jettySize=auto;html=1;" edge="1" parent="1" source="AVKwIdNILiTaegCWu8nr-11" target="AVKwIdNILiTaegCWu8nr-27">
          <mxGeometry relative="1" as="geometry" />
        </mxCell>
        <mxCell id="AVKwIdNILiTaegCWu8nr-41" value="" style="edgeStyle=orthogonalEdgeStyle;rounded=0;orthogonalLoop=1;jettySize=auto;html=1;" edge="1" parent="1" source="AVKwIdNILiTaegCWu8nr-11" target="AVKwIdNILiTaegCWu8nr-9">
          <mxGeometry relative="1" as="geometry">
            <mxPoint x="667.01" y="165" as="targetPoint" />
          </mxGeometry>
        </mxCell>
        <mxCell id="AVKwIdNILiTaegCWu8nr-11" value="" style="shape=image;verticalLabelPosition=bottom;labelBackgroundColor=default;verticalAlign=top;aspect=fixed;imageAspect=0;image=data:image/png,iVBORw0KGgoAAAANSUhEUgAAAFIAAABXCAYAAACX4RIoAAAAAXNSR0IArs4c6QAAAARnQU1BAACxjwv8YQUAAAAJcEhZcwAAFiUAABYlAUlSJPAAABEzSURBVHhe7VwJdBRVuv6q16SzQQLIIgJiAhggDCAIGNkGBh9P0BkcH7KI4PhUBAZ0wKMezzg6cxjZ1IfoGx8ggsABHTbfDDwdRZYZQGHY980gSQhL1t6ru9//31uV7oSEJSlIw/QHt+tW1e1b9373+//736rqKLmh70OIodZQzoa+ixFpAJTC0MkYkbVECEEowVAgRmQtocIDJUTQ9mOoIfxww6TlY6glYkQahBiRBsEYIsnLnjjmwd6dHng9Qe3gvxaMIVIJ4cShIBbOcGPF/7hw/LAP6r9YMGCQaSswKwoKz4fwt9VeLJzpxtpPPcg7q2rnb38YRGQIJlMIiimIQCCAnBM+/HWZG4vmOLHxLy4UFd3+hBqmSDZkhWozmRRBqter4uAuPz6d68WS913Y/Z0XLuft6z8NU2SQ4nqFc1p8T5ZOKQSfR8X3X/uwaLYHK+ez//QgELz9/KdhilSYuXJwXtBKmxDTjAt5Pmxc58XHs934ywo3CvJVoeLbBQYRCViItzAxnCOFsq0Lkk0wmUPCf54+qmLVQjfefdWNf2z0QFVvD3M3jEg1SH6SEkOqk/ZDQcqzuTNZTChgJkJVfwBnTnrwySwXPp5ThuLCW59Mw3yk2cxbJo4JlIpkVDR5uS8STUguZwCH/gmUFIZw8XwAuWf8N1WhAbrU6TOlyM13akdqDsN8JJPHM3bkzSQmLBiU5Epi5flIbkXYRPvHD6hYMteNDas8OJd348Ol3AInVq45hVmz92HX7kva0ZrDMNPmiTjMoVSdTipvwmRGltNAp1Q/cOpgCKsW0Az/jhvbv/WhrMR4dTpdPmzekof33t+PhR8dwYE9RfB5Kzfo+mGYaSshVh/nJWGSRF16cl+YdAShkTDxOQroPW4/DlDMufhdJz6l+PPQXi98vtoT6vMHse9gEd79YB9mztqLbZvOw+NUySXJuLeqNl0PDFMkN8ZEflLwJKATph+QCg0TzKTy5BMuyeDYE0oQJUV+bP2SwqU5bvx5kRunjrG516yzJ0+XYtHSY5g+fS/Wr8tH0SWVry5ckaiTognZiprDMCIDrDja6uZ8eaelIsMNlqSKRHuVu8FFFYUmoFN+rF/hxYKZLnyx3E0kcKevDaVlKv687iT+8PtdWL7kOHJOlYAESARqBQjc6iDETFkrGEYksyGiHAGdFt7qNOk+kwmljQC7A5NWSp6TKC8g4s9gQKX404e1i3346I9O/PPvHjhpxq8OPgqvvvl7Pt6avhsf/fcRHD5UgoCPYl0OditBtCzcoBrDICIVOBLMsMWbqNORM3fkVlck5fTDBD7EuxW7oh+RPpXLmDT/uY/85/wZFIO+68aRAz5a04crYz94+EgRTSR7MWfGPmzbnA93aRBWKw1WNT0VLQsroMYwTJHtsiwYMioOrTNtNPJmQahoZTkqE8xEcfxJ4ZHISeIk5BFO+nckoTwYIZQU+7D9bx7M/6Mba5eV4dJFFYVFHixdcRK/+8NO/PWLXIpNfcIHVkegDmqVFgPXDoYRWS/VgkG/iMfoXzswYJgVje8yw2QxaerTiWFIlYl9+h/UVkPh84xwWX0rCZX7UsVB5OX48c0aFT+eCiDntBvrvziLH447QZ5AlLlWBEO1p8EwIhmsgNYZVgx7KgnjpsajWx8rkpKtwndGEqqTolB5GTJpYMXpWU2B+nfC2zDE+t1PS07yf5xC5DY5nLkeErlOs+LR8jWHoUTqsFoVtG0fh5HjEzFychw69bTCZtf9p1ZIECrX3uWgrNyT5WRZ7Ug5OeVUy0/asPmGrFSO66J49vpgoqVinJavOW4IkRIKklLM6NE7DmOmJGDI6Di0zLDATMEmm7Mwb2JKu0GkfegkMHn65CSPVTWBSbL5gzpCSytOrOqqEVl/JLg8LatqiRtIpA4FqWlWDBmegKdecmDQf8ThjmZmsSTkc34fy4nz/KGTJ8EkRexGQB6MpIZjToUC+bBzqIiA2YuAxS1WYBVBgbm59jTcBCJ1KLg7w4aho+Lx5IsO9PiZBQmkWO5WudgIkXlG5H6kQgUidgOwiMCaZ+GqoNCEooTMZPmVz3OcGlFnDVElkcVOPwpLSDJVt6lWiCNf2eEncRg9IRkjJ8UhI8skwg9hoUItfFHZsbA6eavP3BVVKyB2NQojFBciheowBS0wBazaXhiyymtfLVWHKonMOefGvLWnsHpLHvIuesTzGKORlGRGr74ODBsXj7Q7TGLZZuL1WzmZOiR5nHQCKwfQ3AkL+TnyvhqpVIZIDJrUCmTqCJhpiqf6hEulyMFiq91kw3ZgHvbki789TwHu+SKZLlD+UE4ZNuwowI7DhThAC35+2H9nw3jYaIVgNOIdpEhauvFM7/UGUXIpBLeLyWLywuoKI/IYf8+ELtmkNIsPW7cWoLRUC8Tpn4nNuQqtCHJpaZpS34Ls3o3Qv08z1K9n085ejjJ3ACfynCigIF/nqTzRsUK3G6aiUhVFZf4KyemmkaR+uKljP+S7cfa8Bx5v7eV/JTRsasJQmtmffCkenR4w04xP4RL1t6IxhNVawbwpHzCRj1TYR1QkOhJcV0ANwW6xoWuvNEyY1A7PP5uJVi0TtRJVg4VUXHY5TyKRGyxzqVCCVdjt97ReXbg+B41TbXjkgSbIbJmsjfKNw96dLuT+oKJzDweRqOAfG13YuDaAs6dV+Gk9LZd60rzDoRAr2oz/fCWR4sgyvD1zH3JzS8nnXq5ClQg0k+jubJqAgf/eGI8Mbo3kxOpVWBmXsxQGvx9Z5YumLNeCYi9aNXbAEWfAQvQasHm9F5/P96L+HUCvAVaxKvJ4Qtj2NZnsBh/O/ajS7KoTKhXJLRdEvuqAYi/G22/vw5kfPRXu8pBQEKDvNW1uQ9/+TfDTfi2Q3iqlslhrhWpfNG1Y30YqTLppJDJ4suE74Uf3+olQNxb/l5PW0kH0G2LHk1Pi0edhO9Ias1uXDFQcfzLt8vBHQp4OoX6aDf0HNcZLv+mAZ8dlIv1uY0nUUSWRdQKt4yZzAM6yAHZ8rYqXCVb8yQObzYxfjEvAqIkJ6Jxto8mJ4kF+/EvfEYTydwPUFZpA+L4mK5Dv1md1TcHEie3wm8lZ6Na5Kan4xgkjeoiMgP644WK+H5v+14uPZ7rw9VoPGtGKaMSEBIz4dRzadbbAHifX7yyxkIkIpLCI5hy0yXTg2QkZeHFyJ/TrcycSE67dF9YUUfMy/tYNXnw6z4VSWgiwmUdOKiFSmtVuRutMBdkP2dGxix1Omim3bFCxf5uKn4+1I2h1Ysmyo2jRyoHBDzVB67vTiN6bo5NqJ5u6wNb/IyLfdxKRqiCSVcYRTnnzKKzhbCItK9Pb29BvKBF7rw3nyI/WTyNlWlRcuOTCXXcmkm+/fAVzIxGFRIYVWRFhUuX9SxPqpVrJX5qI0Dg0b0nLPy5QR4iun4dUM5zyRSx5M5jNneNZfn5TdMmHb9ep+NPv3Th2oPa3wWqL6CFSCCqSTVZh2E+G85x4bc7zsx8X8lSUFl++nr6poHZFmSIjzVNXobYnSOQdThF56kEdWrUAty3KFFkZUoWsRk6SwEpJEFy3UMipRw+R5dCUxp9iI8mUiuRjOuNyFo8WRCGRmtL4swJTksDIQ0Kp2vG6RpT5yEjiqgKTJk1dL8tTTjQgaohkpYlHDdr9RElWOC8tWiOvAneyTF0jaohMaQg0bMbv6CjiLbsQPwcQxEn/KM08kmQdFVitM0QNkRkdrHj8ORt6/NSG+g34aR83TSdMJ1BsiFSOG8MxZjQgaoi020zI7BiPEeMdeOIFBzr1sCEh2SRul7HqWIUVidN9ZXQgaojUkZxiwf194jF6kgNDRtvRoo0FFqv+/CZMXDSRyIg6IhlMUYOGFgwYkoDnXknAwGE2NGrKr7vwowNZJqzO6CA0KonUwW+WNb3Lhp8/lYQxLzrQ82d2pKSaoPrl64KSy+jwk1FNpA4rEdr+J3YMf44fNziQ1dMMu3ieFPORNUJiohndezvw1JREPDouHukdyNzJ3qNh8r5l/+4Pv3d25qQP27/xoVN3OzLa3/jnMtUhqu6Q1xQed1C8hGWl8KmucFsQGQ2IrkcNtzhiRBqEGJEGIUakQYgRaRBiRBqEq4Y/+mmj7rZ4PB7s2bOXtm507twZSUlJ2plbF1XGkfv378fcuXPhdrthsVjg8/mQmpqKCRMm4J577tFK1RwbNmzA1KlT0axZM8yePRtt27bVzhiHwsJCrF69Glu2bEG9evXw2GOP4f7779fOGo8q40ibzYZGjRohLy8PS5YsQXFxsdi32+1aidphx3c7wH8whMls2bKldtQ4lJaW4rXXXsP06dOFNV24cAFr1qyB01n7v6RyJVRp2nxo2bJleOONN4Q6+/bti6VLl2L+/PkIBIKYOHEC+vTpg1mzZqGkpAQ5OTl46KF/w5Ejh1FUVCSODR48GOfOncO6devEIPzqV88gPj4OU6dNRV5uHh599FFR/6pVq+laS8nEkzFu3FgMHz4cH3zwATZu/BYOhwPdut0n3MHBgwfFABw7dgxjxoxBfn6+IGjs2LF45plnEBcnf+Lx1Vdf4fHHH6c2TsTLL79M7Q0I64qPj8dnn31GdX8o9n/5y8cwfvx4bN68GR9++CGaNm2GtLRUUTeX4eMdOnSgOqZd1WqqXdmwPzRpr4SZaSG7bds2vPnmm8JMrFYLZsyYgZ07d+Ls2bP48ssv0b9/f7RufTfOnDmDHTt2oHfv3mjVqpVwDe3btxcD8847cwQRWR2zqNFNMXDgQMybNw+ffLIITzzxBDIyMqjet7F161ZcvHiROrKJLKEhEdlNWAcTxHWmNUjDtGnTRJmuXbuKwd21a5doK+PAgQNi269fPzGAPBhpaWnC1N966y08+GA2Hn74YSxYsACLFy8WbmD79u1ErovOPYj33ntPXCs9/R58R9bD+0z81VDtrK0LlX3knj17hOpYBaw4Nn82FSa5e/fumDJliugwg5XK++np6VT+HE6cOIGCggK4XC40btwYmZmZaNGihWj00aNHxaizmU+aNJE6HicUp6oq2rVrh9dffx09e/YUA8tEs5p7P9gbiYmJeP755zFq1CihfiZaR3XPuXfv3i2EMHnyZKGyFi1b4PDhw/B6vcJfv/LKq+JaPBCXLl0U/WVwu7k9V8MVwx8mkzvBqUmTJoIgVtE0aggTxWbDndLLMhITE8SWlfr5558JsxsxYoQgn8tzYmVy47he9sE84qwMHrSEhARRF5sqJ71eHjT5y1q+22Mmy5Avk7LZc9LBA8XWxJMaD3ZpWakYMP4ek8LE8zVdTpcwdy7LlpOcLKMHvl52drbwsTwZjhw5stxtXAlXVCQnvkiPHj3IzO7AokWfCH+y6dtNotM6yTq4sVq/hfqY5JUrV2LTps2CQAbXySRyJDBgwACcPn1aEM3q48mHFc6Qdck2ROb1c5GIbMN9992HoY8MxfLly4Vix40dhxUrVgiL4b5MmjQJTz/9NJVUMGjQIGH++gAnJycLN8XEcz/Z9HVlXg3m3xK0fAVwZ1NSUgSJPMpsajyaiYlJYqK49957RZm2bduJczpB7BPbtGkjSGnevLlwBdnZD4gOctzI5LIpcb3cOS7HaszKysILL7wgHDsrtPldzdGtezehGDY/9o9dunQR12nQoIFwIUwCp169egmLYbB62EezX9S/x+3lYx07dhR94CiEr8V1+H1+JKckC7Pm77Kr4X6XlZWJvgwdOlTsXwlkX7H7kUYgdj/SQMSINAgxIg1CjEiDcEsSyb+fzr3ggS+K/j7vLUmk1x/E/tOlcHlu7I/xrwe3qGkrFLPKbXSAFia+kJPiyFsrlHT7gth9vBjtWyUhKd6iHa07BODD/wNGrPHNWGDKFAAAAABJRU5ErkJggg==;" vertex="1" parent="1">
          <mxGeometry x="740" y="130" width="65.98" height="70" as="geometry" />
        </mxCell>
        <mxCell id="AVKwIdNILiTaegCWu8nr-12" value="" style="aspect=fixed;sketch=0;html=1;dashed=0;whitespace=wrap;verticalLabelPosition=bottom;verticalAlign=top;fillColor=#2875E2;strokeColor=#ffffff;points=[[0.005,0.63,0],[0.1,0.2,0],[0.9,0.2,0],[0.5,0,0],[0.995,0.63,0],[0.72,0.99,0],[0.5,1,0],[0.28,0.99,0]];shape=mxgraph.kubernetes.icon2;kubernetesLabel=1;prIcon=pod" vertex="1" parent="1">
          <mxGeometry x="520" y="362.75" width="50" height="48" as="geometry" />
        </mxCell>
        <mxCell id="AVKwIdNILiTaegCWu8nr-14" value="" style="aspect=fixed;sketch=0;html=1;dashed=0;whitespace=wrap;verticalLabelPosition=bottom;verticalAlign=top;fillColor=#2875E2;strokeColor=#ffffff;points=[[0.005,0.63,0],[0.1,0.2,0],[0.9,0.2,0],[0.5,0,0],[0.995,0.63,0],[0.72,0.99,0],[0.5,1,0],[0.28,0.99,0]];shape=mxgraph.kubernetes.icon2;kubernetesLabel=1;prIcon=pod" vertex="1" parent="1">
          <mxGeometry x="520" y="260" width="50" height="48" as="geometry" />
        </mxCell>
        <mxCell id="AVKwIdNILiTaegCWu8nr-57" value="" style="edgeStyle=orthogonalEdgeStyle;rounded=0;orthogonalLoop=1;jettySize=auto;html=1;entryX=0.1;entryY=0.2;entryDx=0;entryDy=0;entryPerimeter=0;" edge="1" parent="1" source="AVKwIdNILiTaegCWu8nr-15" target="AVKwIdNILiTaegCWu8nr-14">
          <mxGeometry relative="1" as="geometry">
            <mxPoint x="355" y="266.53" as="targetPoint" />
            <Array as="points">
              <mxPoint x="525" y="260" />
            </Array>
          </mxGeometry>
        </mxCell>
        <mxCell id="AVKwIdNILiTaegCWu8nr-15" value="" style="image;sketch=0;aspect=fixed;html=1;points=[];align=center;fontSize=12;image=img/lib/mscae/Load_Balancer_feature.svg;" vertex="1" parent="1">
          <mxGeometry x="335" y="241.53" width="50" height="50" as="geometry" />
        </mxCell>
        <mxCell id="AVKwIdNILiTaegCWu8nr-21" value="" style="image;aspect=fixed;html=1;points=[];align=center;fontSize=12;image=img/lib/azure2/databases/Azure_Database_MySQL_Server.svg;" vertex="1" parent="1">
          <mxGeometry x="590" y="366" width="30" height="40" as="geometry" />
        </mxCell>
        <mxCell id="AVKwIdNILiTaegCWu8nr-48" value="" style="edgeStyle=orthogonalEdgeStyle;rounded=0;orthogonalLoop=1;jettySize=auto;html=1;" edge="1" parent="1" source="AVKwIdNILiTaegCWu8nr-22">
          <mxGeometry relative="1" as="geometry">
            <mxPoint x="573" y="431" as="targetPoint" />
          </mxGeometry>
        </mxCell>
        <mxCell id="AVKwIdNILiTaegCWu8nr-22" value="" style="image;aspect=fixed;html=1;points=[];align=center;fontSize=12;image=img/lib/azure2/management_governance/Log_Analytics_Workspaces.svg;" vertex="1" parent="1">
          <mxGeometry x="541.4" y="456" width="64" height="64" as="geometry" />
        </mxCell>
        <mxCell id="AVKwIdNILiTaegCWu8nr-49" value="" style="edgeStyle=orthogonalEdgeStyle;rounded=0;orthogonalLoop=1;jettySize=auto;html=1;" edge="1" parent="1" source="AVKwIdNILiTaegCWu8nr-23" target="AVKwIdNILiTaegCWu8nr-22">
          <mxGeometry relative="1" as="geometry" />
        </mxCell>
        <mxCell id="AVKwIdNILiTaegCWu8nr-51" value="" style="edgeStyle=orthogonalEdgeStyle;rounded=0;orthogonalLoop=1;jettySize=auto;html=1;entryX=0;entryY=0.75;entryDx=0;entryDy=0;" edge="1" parent="1" source="AVKwIdNILiTaegCWu8nr-23" target="AVKwIdNILiTaegCWu8nr-10">
          <mxGeometry relative="1" as="geometry">
            <mxPoint x="422" y="374" as="targetPoint" />
            <Array as="points">
              <mxPoint x="422" y="420" />
              <mxPoint x="423" y="420" />
              <mxPoint x="423" y="384" />
            </Array>
          </mxGeometry>
        </mxCell>
        <mxCell id="AVKwIdNILiTaegCWu8nr-58" value="" style="edgeStyle=orthogonalEdgeStyle;rounded=0;orthogonalLoop=1;jettySize=auto;html=1;" edge="1" parent="1" source="AVKwIdNILiTaegCWu8nr-23" target="AVKwIdNILiTaegCWu8nr-30">
          <mxGeometry relative="1" as="geometry" />
        </mxCell>
        <mxCell id="AVKwIdNILiTaegCWu8nr-23" value="" style="image;aspect=fixed;html=1;points=[];align=center;fontSize=12;image=img/lib/azure2/management_governance/Monitor.svg;" vertex="1" parent="1">
          <mxGeometry x="390" y="456" width="64" height="64" as="geometry" />
        </mxCell>
        <mxCell id="AVKwIdNILiTaegCWu8nr-94" value="" style="edgeStyle=orthogonalEdgeStyle;rounded=0;orthogonalLoop=1;jettySize=auto;html=1;" edge="1" parent="1" source="AVKwIdNILiTaegCWu8nr-24" target="AVKwIdNILiTaegCWu8nr-73">
          <mxGeometry relative="1" as="geometry">
            <mxPoint x="140" y="240" as="sourcePoint" />
            <Array as="points">
              <mxPoint x="240" y="240" />
            </Array>
          </mxGeometry>
        </mxCell>
        <mxCell id="AVKwIdNILiTaegCWu8nr-24" value="" style="outlineConnect=0;dashed=0;verticalLabelPosition=bottom;verticalAlign=top;align=center;html=1;shape=mxgraph.aws3.users;fillColor=#D2D3D3;gradientColor=none;" vertex="1" parent="1">
          <mxGeometry x="70" y="235.03" width="66" height="63" as="geometry" />
        </mxCell>
        <mxCell id="AVKwIdNILiTaegCWu8nr-32" value="" style="edgeStyle=orthogonalEdgeStyle;rounded=0;orthogonalLoop=1;jettySize=auto;html=1;" edge="1" parent="1" source="AVKwIdNILiTaegCWu8nr-25" target="AVKwIdNILiTaegCWu8nr-11">
          <mxGeometry relative="1" as="geometry">
            <Array as="points">
              <mxPoint x="770" y="130" />
              <mxPoint x="770" y="130" />
            </Array>
          </mxGeometry>
        </mxCell>
        <mxCell id="AVKwIdNILiTaegCWu8nr-25" value="" style="rounded=0;whiteSpace=wrap;html=1;" vertex="1" parent="1">
          <mxGeometry x="720" y="60" width="100" height="40" as="geometry" />
        </mxCell>
        <mxCell id="AVKwIdNILiTaegCWu8nr-34" value="" style="edgeStyle=orthogonalEdgeStyle;rounded=0;orthogonalLoop=1;jettySize=auto;html=1;" edge="1" parent="1" source="AVKwIdNILiTaegCWu8nr-27" target="AVKwIdNILiTaegCWu8nr-28">
          <mxGeometry relative="1" as="geometry" />
        </mxCell>
        <mxCell id="AVKwIdNILiTaegCWu8nr-42" value="" style="edgeStyle=orthogonalEdgeStyle;rounded=0;orthogonalLoop=1;jettySize=auto;html=1;" edge="1" parent="1" source="AVKwIdNILiTaegCWu8nr-27" target="AVKwIdNILiTaegCWu8nr-10">
          <mxGeometry relative="1" as="geometry">
            <Array as="points">
              <mxPoint x="650" y="272" />
              <mxPoint x="650" y="272" />
            </Array>
          </mxGeometry>
        </mxCell>
        <mxCell id="AVKwIdNILiTaegCWu8nr-27" value="" style="image;aspect=fixed;perimeter=ellipsePerimeter;html=1;align=center;shadow=0;dashed=0;fontColor=#4277BB;labelBackgroundColor=default;fontSize=12;spacingTop=3;image=img/lib/ibm/devops/continuous_deploy.svg;" vertex="1" parent="1">
          <mxGeometry x="742.99" y="241.53" width="60" height="60" as="geometry" />
        </mxCell>
        <mxCell id="AVKwIdNILiTaegCWu8nr-35" value="" style="edgeStyle=orthogonalEdgeStyle;rounded=0;orthogonalLoop=1;jettySize=auto;html=1;" edge="1" parent="1" source="AVKwIdNILiTaegCWu8nr-28" target="AVKwIdNILiTaegCWu8nr-29">
          <mxGeometry relative="1" as="geometry" />
        </mxCell>
        <mxCell id="AVKwIdNILiTaegCWu8nr-44" value="" style="edgeStyle=orthogonalEdgeStyle;rounded=0;orthogonalLoop=1;jettySize=auto;html=1;" edge="1" parent="1" source="AVKwIdNILiTaegCWu8nr-28" target="AVKwIdNILiTaegCWu8nr-10">
          <mxGeometry relative="1" as="geometry" />
        </mxCell>
        <mxCell id="AVKwIdNILiTaegCWu8nr-28" value="" style="image;aspect=fixed;html=1;points=[];align=center;fontSize=12;image=img/lib/azure2/devops/CloudTest.svg;" vertex="1" parent="1">
          <mxGeometry x="742.99" y="338" width="58.8" height="68" as="geometry" />
        </mxCell>
        <mxCell id="AVKwIdNILiTaegCWu8nr-29" value="" style="outlineConnect=0;dashed=0;verticalLabelPosition=bottom;verticalAlign=top;align=center;html=1;shape=mxgraph.aws3.email;fillColor=#D9A741;gradientColor=none;" vertex="1" parent="1">
          <mxGeometry x="737.49" y="456" width="71" height="47.03" as="geometry" />
        </mxCell>
        <mxCell id="AVKwIdNILiTaegCWu8nr-59" value="" style="edgeStyle=orthogonalEdgeStyle;rounded=0;orthogonalLoop=1;jettySize=auto;html=1;" edge="1" parent="1" source="AVKwIdNILiTaegCWu8nr-30" target="AVKwIdNILiTaegCWu8nr-37">
          <mxGeometry relative="1" as="geometry">
            <Array as="points">
              <mxPoint x="180" y="488" />
              <mxPoint x="180" y="488" />
            </Array>
          </mxGeometry>
        </mxCell>
        <mxCell id="AVKwIdNILiTaegCWu8nr-30" value="" style="verticalLabelPosition=bottom;html=1;verticalAlign=top;align=center;strokeColor=none;fillColor=#00BEF2;shape=mxgraph.azure.azure_alert;" vertex="1" parent="1">
          <mxGeometry x="260" y="466.75" width="50" height="42.5" as="geometry" />
        </mxCell>
        <mxCell id="AVKwIdNILiTaegCWu8nr-37" value="" style="sketch=0;outlineConnect=0;fontColor=#232F3E;gradientColor=none;fillColor=#232F3D;strokeColor=none;dashed=0;verticalLabelPosition=bottom;verticalAlign=top;align=center;html=1;fontSize=12;fontStyle=0;aspect=fixed;pointerEvents=1;shape=mxgraph.aws4.users;" vertex="1" parent="1">
          <mxGeometry x="80" y="442" width="78" height="78" as="geometry" />
        </mxCell>
        <mxCell id="AVKwIdNILiTaegCWu8nr-60" value="" style="endArrow=classic;startArrow=classic;html=1;rounded=0;entryX=0.5;entryY=1;entryDx=0;entryDy=0;entryPerimeter=0;exitX=0.5;exitY=0;exitDx=0;exitDy=0;exitPerimeter=0;" edge="1" parent="1" source="AVKwIdNILiTaegCWu8nr-12" target="AVKwIdNILiTaegCWu8nr-14">
          <mxGeometry width="50" height="50" relative="1" as="geometry">
            <mxPoint x="390" y="320" as="sourcePoint" />
            <mxPoint x="440" y="270" as="targetPoint" />
            <Array as="points" />
          </mxGeometry>
        </mxCell>
        <mxCell id="AVKwIdNILiTaegCWu8nr-61" value="&lt;font style=&quot;font-size: 14px;&quot;&gt;Developers&lt;/font&gt;" style="text;strokeColor=none;align=center;fillColor=none;html=1;verticalAlign=middle;whiteSpace=wrap;rounded=0;" vertex="1" parent="1">
          <mxGeometry x="275" y="25.75" width="60" height="30" as="geometry" />
        </mxCell>
        <mxCell id="AVKwIdNILiTaegCWu8nr-62" value="&lt;font style=&quot;font-size: 14px;&quot;&gt;Push&lt;/font&gt;" style="text;strokeColor=none;align=center;fillColor=none;html=1;verticalAlign=middle;whiteSpace=wrap;rounded=0;" vertex="1" parent="1">
          <mxGeometry x="335" y="50" width="60" height="30" as="geometry" />
        </mxCell>
        <mxCell id="AVKwIdNILiTaegCWu8nr-63" value="&lt;font style=&quot;font-size: 14px;&quot;&gt;GitHub&lt;/font&gt;" style="text;strokeColor=none;align=center;fillColor=none;html=1;verticalAlign=middle;whiteSpace=wrap;rounded=0;" vertex="1" parent="1">
          <mxGeometry x="425" y="25.75" width="60" height="30" as="geometry" />
        </mxCell>
        <mxCell id="AVKwIdNILiTaegCWu8nr-64" value="&lt;span style=&quot;font-size: 14px;&quot;&gt;Linked Repo&lt;/span&gt;" style="text;strokeColor=none;align=center;fillColor=none;html=1;verticalAlign=middle;whiteSpace=wrap;rounded=0;" vertex="1" parent="1">
          <mxGeometry x="503.4" y="65" width="60" height="30" as="geometry" />
        </mxCell>
        <mxCell id="AVKwIdNILiTaegCWu8nr-65" value="&lt;font style=&quot;font-size: 14px;&quot;&gt;Checkout&lt;/font&gt;" style="text;strokeColor=none;align=center;fillColor=none;html=1;verticalAlign=middle;whiteSpace=wrap;rounded=0;" vertex="1" parent="1">
          <mxGeometry x="737.49" y="65" width="60" height="30" as="geometry" />
        </mxCell>
        <mxCell id="AVKwIdNILiTaegCWu8nr-66" value="&lt;font style=&quot;font-size: 14px;&quot;&gt;GitHub&lt;/font&gt;" style="text;strokeColor=none;align=center;fillColor=none;html=1;verticalAlign=middle;whiteSpace=wrap;rounded=0;" vertex="1" parent="1">
          <mxGeometry x="643.4" y="50" width="60" height="30" as="geometry" />
        </mxCell>
        <mxCell id="AVKwIdNILiTaegCWu8nr-67" value="&lt;span style=&quot;font-size: 14px;&quot;&gt;Validate&lt;/span&gt;" style="text;strokeColor=none;align=center;fillColor=none;html=1;verticalAlign=middle;whiteSpace=wrap;rounded=0;" vertex="1" parent="1">
          <mxGeometry x="677.49" y="371.75" width="60" height="30" as="geometry" />
        </mxCell>
        <mxCell id="AVKwIdNILiTaegCWu8nr-68" value="&lt;font style=&quot;font-size: 14px;&quot;&gt;Deploy IAC&lt;/font&gt;" style="text;strokeColor=none;align=center;fillColor=none;html=1;verticalAlign=middle;whiteSpace=wrap;rounded=0;" vertex="1" parent="1">
          <mxGeometry x="677.49" y="130" width="60" height="30" as="geometry" />
        </mxCell>
        <mxCell id="AVKwIdNILiTaegCWu8nr-69" value="&lt;font style=&quot;font-size: 14px;&quot;&gt;Deploy Code&lt;/font&gt;" style="text;strokeColor=none;align=center;fillColor=none;html=1;verticalAlign=middle;whiteSpace=wrap;rounded=0;" vertex="1" parent="1">
          <mxGeometry x="677.49" y="256.53" width="60" height="30" as="geometry" />
        </mxCell>
        <mxCell id="AVKwIdNILiTaegCWu8nr-70" value="&lt;span style=&quot;font-size: 14px;&quot;&gt;Trigger Email&lt;/span&gt;" style="text;strokeColor=none;align=center;fillColor=none;html=1;verticalAlign=middle;whiteSpace=wrap;rounded=0;" vertex="1" parent="1">
          <mxGeometry x="742.39" y="509.25" width="60" height="30" as="geometry" />
        </mxCell>
        <mxCell id="AVKwIdNILiTaegCWu8nr-71" value="&lt;font style=&quot;font-size: 12px;&quot;&gt;Cluster IP&lt;/font&gt;" style="text;strokeColor=none;align=center;fillColor=none;html=1;verticalAlign=middle;whiteSpace=wrap;rounded=0;" vertex="1" parent="1">
          <mxGeometry x="550" y="401.53" width="55.4" height="28.47" as="geometry" />
        </mxCell>
        <mxCell id="AVKwIdNILiTaegCWu8nr-72" value="&lt;span style=&quot;font-size: 14px;&quot;&gt;Load Balancer&lt;/span&gt;" style="text;strokeColor=none;align=center;fillColor=none;html=1;verticalAlign=middle;whiteSpace=wrap;rounded=0;" vertex="1" parent="1">
          <mxGeometry x="570" y="269" width="60" height="30" as="geometry" />
        </mxCell>
        <mxCell id="AVKwIdNILiTaegCWu8nr-77" value="" style="edgeStyle=orthogonalEdgeStyle;rounded=0;orthogonalLoop=1;jettySize=auto;html=1;" edge="1" parent="1" source="AVKwIdNILiTaegCWu8nr-73" target="AVKwIdNILiTaegCWu8nr-15">
          <mxGeometry relative="1" as="geometry" />
        </mxCell>
        <mxCell id="AVKwIdNILiTaegCWu8nr-91" value="" style="edgeStyle=orthogonalEdgeStyle;rounded=0;orthogonalLoop=1;jettySize=auto;html=1;" edge="1" parent="1" source="AVKwIdNILiTaegCWu8nr-73">
          <mxGeometry relative="1" as="geometry">
            <mxPoint x="130" y="290" as="targetPoint" />
            <Array as="points">
              <mxPoint x="240" y="290" />
              <mxPoint x="130" y="290" />
            </Array>
          </mxGeometry>
        </mxCell>
        <mxCell id="AVKwIdNILiTaegCWu8nr-73" value="" style="image;aspect=fixed;html=1;points=[];align=center;fontSize=12;image=img/lib/azure2/networking/Public_IP_Addresses_Classic.svg;" vertex="1" parent="1">
          <mxGeometry x="220" y="250.41" width="40" height="32.5" as="geometry" />
        </mxCell>
        <mxCell id="AVKwIdNILiTaegCWu8nr-79" value="&lt;font style=&quot;font-size: 14px;&quot;&gt;Load Balancer Frontend&lt;/font&gt;" style="text;strokeColor=none;align=center;fillColor=none;html=1;verticalAlign=middle;whiteSpace=wrap;rounded=0;" vertex="1" parent="1">
          <mxGeometry x="210" y="308" width="60" height="30" as="geometry" />
        </mxCell>
        <mxCell id="AVKwIdNILiTaegCWu8nr-80" value="&lt;font style=&quot;font-size: 14px;&quot;&gt;Load Balancer Backend&lt;/font&gt;&lt;div&gt;&lt;font style=&quot;font-size: 14px;&quot;&gt;&lt;br&gt;&lt;/font&gt;&lt;/div&gt;" style="text;strokeColor=none;align=center;fillColor=none;html=1;verticalAlign=middle;whiteSpace=wrap;rounded=0;" vertex="1" parent="1">
          <mxGeometry x="410" y="278" width="60" height="42" as="geometry" />
        </mxCell>
        <mxCell id="AVKwIdNILiTaegCWu8nr-81" value="&lt;span style=&quot;font-size: 14px;&quot;&gt;Public IP&lt;/span&gt;" style="text;strokeColor=none;align=center;fillColor=none;html=1;verticalAlign=middle;whiteSpace=wrap;rounded=0;" vertex="1" parent="1">
          <mxGeometry x="250" y="226.53" width="60" height="30" as="geometry" />
        </mxCell>
        <mxCell id="AVKwIdNILiTaegCWu8nr-82" value="&lt;span style=&quot;font-size: 14px;&quot;&gt;Load Balancer&lt;/span&gt;" style="text;strokeColor=none;align=center;fillColor=none;html=1;verticalAlign=middle;whiteSpace=wrap;rounded=0;" vertex="1" parent="1">
          <mxGeometry x="330" y="291.53" width="60" height="30" as="geometry" />
        </mxCell>
        <mxCell id="AVKwIdNILiTaegCWu8nr-85" value="&lt;span style=&quot;font-size: 14px;&quot;&gt;DevOps&lt;/span&gt;" style="text;strokeColor=none;align=center;fillColor=none;html=1;verticalAlign=middle;whiteSpace=wrap;rounded=0;" vertex="1" parent="1">
          <mxGeometry x="89" y="520" width="60" height="30" as="geometry" />
        </mxCell>
        <mxCell id="AVKwIdNILiTaegCWu8nr-86" value="&lt;span style=&quot;font-size: 14px;&quot;&gt;Alerts&lt;/span&gt;" style="text;strokeColor=none;align=center;fillColor=none;html=1;verticalAlign=middle;whiteSpace=wrap;rounded=0;" vertex="1" parent="1">
          <mxGeometry x="260" y="520" width="60" height="30" as="geometry" />
        </mxCell>
        <mxCell id="AVKwIdNILiTaegCWu8nr-87" value="&lt;span style=&quot;font-size: 14px;&quot;&gt;Azure Monitor&lt;/span&gt;" style="text;strokeColor=none;align=center;fillColor=none;html=1;verticalAlign=middle;whiteSpace=wrap;rounded=0;" vertex="1" parent="1">
          <mxGeometry x="395" y="520" width="60" height="30" as="geometry" />
        </mxCell>
        <mxCell id="AVKwIdNILiTaegCWu8nr-88" value="&lt;span style=&quot;font-size: 14px;&quot;&gt;Log Analytics Workspace&lt;/span&gt;" style="text;strokeColor=none;align=center;fillColor=none;html=1;verticalAlign=middle;whiteSpace=wrap;rounded=0;" vertex="1" parent="1">
          <mxGeometry x="580" y="509.25" width="60" height="30" as="geometry" />
        </mxCell>
        <mxCell id="AVKwIdNILiTaegCWu8nr-89" value="&lt;span style=&quot;font-size: 14px;&quot;&gt;General Users&lt;/span&gt;" style="text;strokeColor=none;align=center;fillColor=none;html=1;verticalAlign=middle;whiteSpace=wrap;rounded=0;" vertex="1" parent="1">
          <mxGeometry x="70" y="301.53" width="60" height="30" as="geometry" />
        </mxCell>
        <mxCell id="AVKwIdNILiTaegCWu8nr-95" value="&lt;span style=&quot;font-size: 14px;&quot;&gt;Requests&lt;/span&gt;" style="text;strokeColor=none;align=center;fillColor=none;html=1;verticalAlign=middle;whiteSpace=wrap;rounded=0;" vertex="1" parent="1">
          <mxGeometry x="160" y="211.53" width="60" height="30" as="geometry" />
        </mxCell>
        <mxCell id="AVKwIdNILiTaegCWu8nr-96" value="&lt;span style=&quot;font-size: 14px;&quot;&gt;Responce&lt;/span&gt;" style="text;strokeColor=none;align=center;fillColor=none;html=1;verticalAlign=middle;whiteSpace=wrap;rounded=0;" vertex="1" parent="1">
          <mxGeometry x="149" y="261.53" width="60" height="30" as="geometry" />
        </mxCell>
        <mxCell id="AVKwIdNILiTaegCWu8nr-98" value="" style="shape=image;verticalLabelPosition=bottom;labelBackgroundColor=default;verticalAlign=top;aspect=fixed;imageAspect=0;image=data:image/png,iVBORw0KGgoAAAANSUhEUgAAAQAAAADiCAYAAAChiRlbAAAAAXNSR0IArs4c6QAAAARnQU1BAACxjwv8YQUAAAAJcEhZcwAAFiUAABYlAUlSJPAAAEK+SURBVHhe7X1ZjF3Zdd0pFslu9USp1bN60jyPtmRLtgLJkrpleABsJHCAwBkcGwlkf+cjsOEkSOBPf+Qv+XESZALy4wCGxW7LVnrS2OpBPZHsVo/s5tgkqzizhuy11t5nuO89skhWkcV6Z923z1p7OOfdV/XuOfe+oWpm2ZA6OjqmEpucOzo6phB9AujomGL0CaCjY4rRJ4COjilGnwA6OqYYfQLo6Jhi9Amgo2OK0SeAjo4pRp8AOjqmGH0C6OiYYvQJoKNjitEngI6OKUafADo6phh9AujomGL0CaCjY4rRJ4COjilGnwA6OqYYfQLo6Jhi9Amgo2OK0SeAjo4pRp8AOjqmGH0C6OiYYvQJoKNjitH/L8AVgLcOzqeHnnwlPffyvvSjZ19PZ+5+T1q4+860cM/dKohfIdmMFL9W98/FzRiT2IwuuNZj+Cz97rj5nenGG65NMzMzacZiaIPff82m9CGzz2+bTTdtmUGnjjVEnwDWOf7svz2c/utfP5n2vD1vB89SNv7alhbS9R95X7rxFz6bbvj4h73HOoU/y5b9QG/Z4oNnIQ7+37xlS/q992z1SMdaoE8A6xj/7M/+b/rLh5/n0bHMA99+VWA7aNLSIvWyTQKYCO7+3b+ftn3mE+q4HoFnGY90eqPIeYmYIL5642z6dx+4GhUda4D+GsA6hQ7+He4Bg9NhO31eNtPBMpNe/S//Ox15+hnlLidw/JpxXRnwyqzt87cHF9Kf7DqpsTtWHX0CWIfY/sOX0l8+spMHuQ58Hfy4Zq5j2NLMJgvZr9Hi+x78blpetDODyw3sFhpKZ9u/vPExDGokhVob/u7thfToITvT6Vh19AlgHeIvvv20qwp20NiiCMEWoI+DiQfUTDrx+ltp719vR3TtoZ0R+2pNVqPVHBu4No+xRk32aQC1nMj95b4z9DtWF30CWGd46c1Ddgbws3Jgb7JfkRlXTmgc62StpDorgC+bf76+bFhDYD8C2AUPZMa+xYZ9RMy2zJJCrQN1H7s9dmgxvX4Sr390rCbsWdOxnvDgj14mcwHE4letlstLaO1osBjSODL0GjoOEtnx195Kx17WGKsC3VHZj4rPx8b1HcasaXho3+uXAauOPgGsMzz4OA5erJogcKz2dhaAMwEe6Dgj8Dg6Ma4zgJnZLWn+mecRXR3wDkASNXPjPozmMipZI9fi8YDpow32ljd4KX3/8Dp4fWODoU8A6wg733g7/e1PXqW2dZCtOHwsjjoY5OPogF+ZTQJzz72A5IXB7wgrLnTm2LAaB1fGPrbpJm4sgFrcGkYP36BpgxrDDw4vpFdP9MuA1USfANYR/ubHL/vx7CthcLXCb9pkEaz0xiyGBm+aNTnL2hNv7kvHXrrAywAbSiRRM7fYJ4+1HM1ZwH2u+4DR+oYcmpwDF/TLgNVFnwDWER6wCSBWPqx5vgA6a1XUx4Cg9a5AruFhYjGLz8xsTkeefdb8yWhW18wYd2U22heMgWXjalZm4/pyh6n7BLC66BPAOsELrx1MDz31OpY/rYDOklgLtepba75W/fK6gHI8UzADn+vdAIyomzXhs9XGGO4cHD7bwkWMgn14U5FGLRtjg/FH0ITl/PjIYnr5eL8MWC30CWCd4EGs/q7JWvBi4Uu49M8abAcPtRkwfDfgxO596eiLLykJRLGbrbWFEbJBa4sYOWrhBgPBBtYy54zNdN6gK8t9wLbh1ljE1KgWN+N+FrB66BPAOsGDj7/iK6KthzyIeaMW+2ofZvFN+fp/k84MGNdrAZtmt6b5ZwfvBmAgR16FK9Z9aYtYzUHjwBreSp92sxj21XPiAZpAOFUf3mb6BLCK6BPAOsCzrxxIDz/9uq1u8KoVsjZrZFwvqZegEbMzYpwRLNnBgTOBJbw+YP7ccztUfwGGO6l5Umzl1vZFAKREHSs8yR4/vJBePNbfElwN9AlgHQCrvy2PWuzIFJm5ctK1XxdWfc/F9X68I8AzApwN8ExgUzq590A6tusl1pfVHaVojemBo3HU2tH04a3ddPMar21Qh6gjUPeJsTSSe2p1I8D9LGB10CeAdYAHf2wTAFZDIBhwbYue2ANs7SCRp1UfDnxovT6AI2ZzOvLMc+0KihoMyJszg24AY3JyLRk9nAc2rs9YQ4Nb3ccMTMNGrVywatGfMn3v7T4BrAb6BHCZ8dOf7U+PPbebBzTXtswgsUK2DkJwxddZAFZ8xf1MwHSs/ngdAHb0hZ2sBRqWnIhmxc+M1tlotEYgo4lAA6/lALipsGwR8xow2xZPHllMO/tlwEWjTwCXGQ/g9F8LnENKq50SWUIEG5acsWqK8TkBX/2dT+w9mOZ37vR+aIIrjb4eqzkbtmEs+vLmbBaccwyKJxq27Ld9OIYciRxb7mcBq4A+AVxmxPU/VzmueGa4ZV1xmK3y4Lj25xkAfpVY+W3b5J8I5JkCvhvw3LjvBlhftBgPTB9tsHsm5NVcoXEKcm01fr1FTLfwxyAHQ0TtTJ8AVgF9AriMePLFfen7z71FnVc5svsNqkid9E8EEviwgB0YOAsA63WAmTT3vJ0BBLw4r67VisrNfLFywexjm9/U1KbGSKxx0d85thyLGmf0iYaGRGH0BfJ4Zk8dWUgvHO2XAReDPgFcRjz4E7z3L61r4mJD3xre2HDl9xXftF4DQFzM1wbwWQD6s+n0gcNpfodPAhwDJFEzN9y3bRGrmahkC09wX6NPjFV5JspZgRBMqDCazBrBmfso3c8CLg72DOm4XHjwx69qkYNxlRMDWOHCEGTYa4ZM4+qvgKr9DICfCdic5p4dvBtwDuM4FY+LWZNz5zb1CYYABZdY4bGGjVp9HjvY/1LQxaBPAJcJj+/am360cw9XMW6+8mpxdN8NwRG2Dat93hi3X2dtfCcAvMnOAF70SkuxNUYfMNsxqBK5T82+H9rG1QjBLdpsGSF46IGFYOCZucX03Hy/DLhQ2LOj43IAL/5xFTMtwyYtr+QA1DaMo8A0VnnW+cHcHiXWMD6TTh04lOZeeCGvnEDmaGpDQ01HtWaZsbkvHTXO6ONNsEwB9GGYtRoHucyKQpJ5U1AcMN3PAi4cfQK4THjw8de4AuP4FBcNwc0ZBzDChVGilZ2vAYBRy5Uf/c3HhtWf3w3AuwFb07z/oRDkzo18RyL6HLX1TMgDC8FE4wBR68zxOVIdLZ5uxJAJc/rrABeOPgFcBvxox570uJ3+1yscuTaryzloWqWRcwOkNQ4KeGbAdwjc7ECb37FLuejIWrFWYmczjTUwbNlXbTDH4ADwOZDrik3Ir8epjHnVBquvxgORcw56OT03t2CXAn0SuBD0CeAy4MHHX7WVC+uYmbFWOmsRy0xJLVfxzDSt/Pg1boLPMwKcGUAXn58KtJrTh+bSvF0GmKP7JsQaR/djDqNog3WDx/Qo6hi11+Y+4GbE1tONCG6Q71Q8HOGxg30CuBD0CeAy4AH/u38BrmxDxgIHCq41WSsijJ4dIPJ1QJS/Heg+DiC8G4APBaE/BkHeB80rKjawx4LbPmiGZg0YDW7q2DAtNq8JVh/0p5QDMWD0ZUu/cH8d4MLQJ4BLjO8//1Z66qX9djDigJTl1TezGm4101SXNVd8W+VZozMCrfpM+mcBwPp0IN4NwAGDOt6XbYU5ijRuIzUCGU0EiCarvtgXL4y2eEyLRQNYlInIipsROD5F2jG/mJ4+0s8Czhd9ArjEwOk/1zCuXBTSESOTfK1zQx02czLXZjX4boAYFdDB/jqA2enD82nu+eetD8aYbOjYMuLcEXKJFT67qU+wtdRocoy68NlNfWrulwHnjz4BXGI8+JPXrLWViyskJHiMAcEAtXJc98CIcdW3X6Np/cVg/ySg/Wp5RmC8Ce8EMG6M7wY8X70boKEmAznmo0jMvmyNbYDK8xYsjB8/Z/0GvxrBY/Ty+AKZeYeLfhlw/ugTwCXEY8++mZ5+2U7/DbZgtYhAnRgpEtpSW/3I8nHtH38yk6ujHR00mwzi7wTMvbArLS8uceVEJ1AGB4EpF8xaE+ojpnmMYWqvVRlBdu2FhVkIl0GxmQgjOsOPcgadAfrLaaddBjxxuJ8FnA/6BHAJ8QBWfy1tdkODpcstNCh8hkIX48rPFNh9PxPAtb++CwANQyo0bDYtHD3BdwM0CkYYgIE2m+8LPvaheGp1I3z3WuRYFOZqtXl8OuTzG1/B7/WzgPNCnwAuIR78iV3/x+qFQDClEvK14rl0NsES5LwqmK1KAJ4BmIarzwJgszMAvjOAs4FZXgawnuOB1AGVik0wbNTqE+zdCLLHglWj/uRJxi7QLUOAgkus5UcP9AngfNAngEuEh5/ZnZ599W2tdFjheCwG4+bx4JyomDL0GLMV3oSdAciP1wb07oBWf50ZzKa5HbgMwGforZZtzd6ib/ZqFoLHo60qIwUPPbAQ3MKjeGwg+qMjvHR0MT3e/17gitEngEuEBx5/TaubXCxWLXvTMFFUgwjXaWr8VWAQVv6aLY2Dh/6MXQaczO8GACMrqsfowmM4mF1YowasXLCPoD7OjSlq2mtxU1AMQaoYksyecEwGIyx+rJ8FrBh9ArhEePAJ/+w/HDAORkqw+xEnq07GSungrCNnv0q894/XALDKW15/M1CrP2r4WQDT/GzA7OZ0dMdO1mkEMNpg90zIAwvBRHbabB7B9zPa4oHVyCssuOf711aVEZQu44L76wArR58ALgG++/Qb6fnX3tYKZX5ZAStrcraZEysaEiCxHLK3ZLlmWvHh80yAY0BYHITXAniYbEpHXtiZlk6fZn7U0LUwBCi4xAqf3dQnGALUsuK1rrk1hMfzS/OL6Udv90lgJegTwCXAgz8Z/Z9/XK+gpYomu+9mDW6lL28eB6NlHCu+ufi1IsczAtO0WuNMYCYtnjyT5nfsUBd0p/AhhuD4FHLJ9f1bi/vMObAQXAQwzBpzB2SKthy7oNgoF9EvA1YKezZ0rDX49h9WKDjBkK7PZQBq4Yk9bk3OO8dRgIOxifl3A/QrtwPKLw/mX8B/D7IQxvIOpLxzYqyu0NgQyH421XgWDWOZgWCAHQqrD1oGFYYfXHcxQwM/M4Wz4dH9fQJYCfoEsMb42yffSLt2H8YRicOuYkoeqIUrw0YGpEcY+cwM22/UGhhr8Ov11wBYp9cG6ncDjux4MS2fGXewoN6ZrY+ZGTSMCpldhN/CokwoOxyJbTU+oLZwEUCbffXYUvpBfy3gnOgTwBoDq7/WJK1iYq1W8POqBqb5qocNuvRoLXJk28yR2QEAtgOBvlw/AbC68O1Xj5oluwzAXwpSMYgNKsXhDy3u2/uIObAYI9AvNdKFz27qEwwBqrm2UlO4nwWcG30CWGM8+ISu/7ky8SAEu7nmCkfpPlPg8Bkguyqa7L4bV3d0JXscv2qcAfCMAN8NEKfZWf+LwRhNY0dLpluiYiFziAZVFW/wywjokz0fQK1zOEATcNaOyXz/oDOb6K8DnBt9AlhD4OB/8U07/Q/Y4tSwo4Sl2FrTMKTrcxkavdKPldDfFchxwGJxWWBPgbkXdqbFUydZUK+20A0zzzQcMST9ygnfDBuZeWf6IGY9xptYwSrgPl341TjegS42uuLXji32SeAc6BPAGiJe/SfAYw1kDVctZwUHTMmawpVhI2MIrfxgfUPQfH8HoLDl3V9aWEpHd+wY3Hf21OpGYOgR5GAUoqlG8JgoosXQkCEjQDg34/s41mZG2H0+dkbtLKBfBpwVfQJYI+A7+dvz9T8XKWeJWMG0gEWM5H24nhXWLbqIaVrtWAWde/hrAObjuwHKRQxRfTcArwXYdUCas8sAjRXmfZwhQMElNsrjTX0KtzE00MG1rmPFSt9xDAF6dP9pfR6iYyz6BLBGeMBW/1f2zcealBewvDpxyRpnTKIpXGtjjplDPjbZ8wpwdUetnQdYDIY08tDI+18MNsZ3A5ZO2mUAaqz3KDzKseGB0QZ71ETxhIaZz96AkRQr2jLNGsVGmciOxO7jS/0y4CzoE8AaARMAFtpYfCZxBpYrcm7GFAkRbtiahu35z4XQhK2FjFHbEUQNptbfCVhaWLZJwC4D0IcDsAlHXFmMyNWWjHBhdvEmM0SwonIYUyIzK4bjFmNXb+gzUbEc+o/ZWUDHePQJYA1wZnEpv/pvNx6MzeoMVlDJrCErvzHPuQuRV3oPjjCu/2n6/D++G6DV38y2+EtBeo1gczq6axcGdvBOOI6LxhRFX2e2xQBPZb+FRzEAb/DRBruHHPaRvtBwTozLmllfvA5g81vHGPQJYA2AF/9etdP/vIJZjOzGhYk5tgygBTK7yKspy6zBLeecvS2MIuXjXQBcB/NvBlrQh5HZwR9nA4ef35kWjh9HEeuG3BrCQy6GZsjSozzekK5ZGk1hjVHrmsN2H19Mj+3rZwHj0CeANcADT7zBlUcrWMU0K8haRt+2zKznUMoHjzUm0Uh7f+Xs12us9/6ttbOA9h0Ay5FxJmBmdUd36jMBHKpmDilfsVEuAhhTxf7wq3G9JaOEvtCyJ5toMaWG4xbrHwoajz4BrDJOnVm0CcBO/w1cqLJhk6Zngr4CinvM5VjOGHasqIXOAHBwLHkBPyPAMwMcGv7tQMsvp9k0vwsTgO+fNSPMrBrEMlM4kzzhxp7BaOlWHF2YVQMfDZkBZ7QsRs5ZwchCNvaonQGc7m8HjKBPAKsMHPy7Dx7jAcUVMwwbjjMedHUsfFAwJJvCCiqZNWTlN+Y5nARgxbcAXwOwgP5OAMZmkq8F4IwAZwjzL+xKi3YZoO68VzO0YCG4CGCYNcb90y8j1Jx3k7FRlhif5Qi+f+6NsLR478kluwzoZwFD9AlglfHAT94oq1FtColpHgtmzjay+7Uxx9Z7CZldcEUke4OVniExJP9moB0Vql1OSzhClv3dAH4mQN8Q1L57neuapSdzawjX3MbQFJaFrmOjVsZo2cyGQwAxNDgL6GjRJ4BVxPFTC+mBJ+36H0cXlzfZyGoOthq0mRHHlhmhmoshiE19nUFQLqKOZit7sMbAr12rP4zfCWANeHM6+uKLpjmMQB0BZ4yH+4WPMRUsjDAV04STOILwFKAnVn8ySYxWrIYs2TBRj++M1wFOLnJa6HDgmdCxSsCLf2+9baf/eV0WtBIF+8oEOYbHm1YxajSMBUsVv+UhEC97UIGTgR0sZkee35EWjh71QaxhJ/XUjmB/nD1GFxvdYMTELDMiRzAH3I+kWdSAwq/HjVKm2ZQ+eTwFaOi7/8RiPwsYoE8Aq4gH/dV/rT7FuG7xhkarGNlra5ZEDTbTsUUMBeR6DPWhL0dMA8rBHZ8D4Ipfmd4Z8G8Jbt5afSbAx0D/GJPjM1gYYfcVG3A4GYOqenwzRQfjw+gJDUeyiRbT8DP9dYAB7LffsRo4euJM2o5X/2PRUUMeqki3rFVKC5cqx5vnrKEmu+8ajeqwKaBX/u1mBwFiqCXIODrsqQDN/Gyaw9uBVoR9CW4N4QmMIV3XnM0qUAtdczbmEa650nn8tm+ODcaXwV1Oj9gZwPH+qaCMPgGsEnDtv+8IPktvB1M2SwSjgVawigUXy6t5zaiCy00Ot5ppnqssfK703HAWwELmgvWXgvT9gPldL/EyAFnkVWUbSumx1yiHMzZr5venaMs0axQbsnvsT9GYosYU4dcVsoOnlvplQIU+AawS+OEfwleXWGTqxWbiwtMm6FkjttULLEmd/cZUp5yveFAKmLanP2M4DJSLgxFAHGcH9HmJsJmfCVD/soIGK6pGrJwKPMGkmH1Y46wo02XcYgDJc0pULMf9UpM5KpTOhmCfAAr6BLAKOHL8dP70XxxQWddM89xQV7Vcv3hTDFFyZcWHNMYWfagjFr4Rr/XB+lRg/VoAr/1xBoB3AvzdgPldL6ofR0JbDPCU+03UGUmxoi3TrNF9yK+ZYAEF3ZZdW43UmPFhCnoOE8CZNH8Gs0FHnwBWATj498+dtBVGKw/gi42ZIlo1fYUKNsusRjmJitWAUa8+GAMGqUpqlZp5LDbmwP55ADN9N8CNObN8tNgk8dab6cbNyHuOtWI00MG1rmPFSt9xMTSFmWj0OKaxC/SQ2xgaaPChk/3dgECfAFYBDzy5244XW3W4EtkBRMaK4z40DyzzakYd3fBZSV9OZaBgGrSsjKVkZmvFnvdrf70T4GcB/D6Ax8znpwRn9d2Ar3z+o+nLt17FUTAObt44F1PK2f3aAO4WuGobpkRTYlLD8UtVGNCye3GnuVL22N4+AQB9ArhIvH30FM8AuLiYDwNC1/5ZOQRQ6xWA5daom694VKPMa32wHRj8S0FNHK8D2FMCZwmWv/8XP5L+3i1bVIAm2CxW08xMidF6OJunxWyQqBhNLlZ/NJlJPq5CjSEqKtwWuLl+ZO+pdOQ0PxM51egTwEXigSd2p0NHT9tCg9XJNi44YGmuxtTOtomFUMx7rjUmi44aJWgaUwo5pcHhF6bEym8bWlvz9R0B5BABb5pNN267Lv3mL380/fLNW9Nt78DTBIMCHNy98Sx9Lh4XNcMOGis6Oi73n7Ehu8f+FAMDjCln0txpfDS4fyagTwAXCbz9pzUlNtdYbKAzRwyM1uNmwAij2DxScFNUHI0mJVaTGQL3CbMnf2YLYw1ccp3NDqJf+dz70juvu9q8lL540xb2iTHEqHUOPzMGQdY5fAhnavZvY8WYFdcxZzTYyEo0FrHCoJYf3XMKezjV6BPAReDA3Em//odnq1RevbDSiBESuya3Zg16FKaE8nzwiLFSumbqyNmNoeq+8Mq/M67987cD47UAs29+4YMYgPjKLVs1nLWZMRQ1u4pF4gjCU6Axpavx2BZDQ5bMbWYOUBtQONJ1pjY0eCHw0KnpvgzoE8BFAAf/kWOnsQ4RWFXIIvJEsyYYIHnM5VjOqgTGFTUYpsVa9eHpa/I4M1Dupm3Xpl/7YpkAvnjzlnS7XQbYuqkaa8TKkxFzJ3wXja5XZLKi9GuLbhAiBIZMQZNsmRYV4buhmcdlwJS/GNgngIsAJgAsNVy/wFh2MlNSy1U8b6Etx6yKnMNXjRhlaKmK9rpingttDceKWvj4tdMF4+8AmMN3BGRf+7n3puvfsRWdM750s84CwoCGOTZFxZUx7I8jc85qd2HuA+LqsUugcS5aD60dvzaANeCq7RNAxwVh7+ETafsTNgEYsKBgRcnMZYaymFLGqhNXuq6hRQyM1mPGAH2aIrxPeKRgZOiidR89IPRaAI4KngR7GrH7fv5eRBp85datHCfvA1gBxSpdx4p538zjYiUHp+ZJMbnjuI2ZooYTeehH9pxKB09O72VAnwAuEFj9j55ccM9Wk7y8uB4xz5kggRUUW5AbpfuuG8u1Rr5xNIsxAvZaMNO1RpN9/PoxAs4ExLfeeH36tS+8H4UNfuGmLenOa/ApQQ5iABdTFPcLkl8bQLZGQ5Q+gjOSzX2IpZxRIsoGZKYYiRbz/YPGF4Om+SygTwAXCJ7+nw98FWIrcq/lMKD2uWC5RiONTTgnhwCo6wNDQPjrn70nXXPVZgUG+NLN+EyAVYVZj7Kqwm3ZpceG7PvOguBiICTI7nPlrksrjYZc9YEm1+YxSq/FWcC0ok8AF4C3Dh23CeBNHTtcsYIpnIGKq9xwlRZTGsFXn2ZDHRkp993CJ9smFkIx77lseDcAz4Dq+v/+nxs9/Q989Ta8LhDjIOKj5/ur7tdLaB7MOTaVp0BjSrfj14aGDOkB+R5l0K2+L+cIgXAGsP/EdF4G9AngArDdDv5jp3T6Xy0qYjW4KdCwQA+rUDA64ybSWGCa6sSVNkENpkUMjNbzZkBhKd4nvGU7BLzvbTdem775+fcyPw4//25cBthTxuvLilz55ErzPljEWHDWGKH2s8FldjSmIPU4HhcTDVl2wi4DpvUsoE8AFwC994+1AyuJsZnc8CEVd6dioNJRV1kzhgkS2X0lpbxOVmu3XOtjhLIYfv1kf+//vs/dnd6x1a7zz4JfukVnAehdG8AhwVXbMAtkig7YGmWLAeLRPrQ8JlA4KxdRFQaQrQFP6+sAfQI4T7xx8BhP/23hIFq2lYWslSVjWHwOsMyaGC3GyiwiTzRrQqMhWysOH6zDAScC933uHuqz4Wu3b+UoHL8yjJSZVCWZaLWo4rpLpZkDow+pcG2MoUZJcUkzT3MNoRrxI2+dSnuOLyIzVegTwHkCB/+phSVfeGLlApsKRqsCxmRyiwZ7sGEo6cyIjzAlazLXG+rIGFD+RLZr/ztvuj7db2cA58Jnb9yS7r1WZwkYurCN5SyAawOMKaO2ycisaXODcVEg4QaUGqXb8WtDQ7a2Znwv6NE903cW0CeA8wSu/7mK0LTyFDYD08pGDwTlBZnVOCPomiyQLZcZdbiJCtNUJ6501IBpdWw5feMzd6Wrtpz99D/wJVwGsL8Gq3lcTAyqeVys5ODUPCkmdxyPj8EZx7BpfB2gTwDngVf32+n/U29qlbGGq+zQmAKXjauMxTKzlq77wTkopgERg3RdWTOGCRIYwWDUYYs6+K7x6v99n7sLnVaEr99hE4CPYY0bgHtw9nDJtIaWNWD3hVLhBRC5pqmyhszIkD3ZRGsDlRwUzgDePDZdlwF9AjgPPPDUbv7rb1s3CHA2rCLjtBlwTg4BUI8EJiLKda/GXh69PEqWRUR2103Xpfs/u/IJ4FPv2pLee609dXhHPiKpZVpUhO+GaGZSlVSCLNWOi6C7YrOSc2ZRZF1XhmhmaxE+szh9ZwF9AjgPPPDkW9Zi5dIqos2VxajBA7MGN7ERGim0ziqwW20IDWJRQwQbqly5zyGjwn0pbvfZwb9l8/k9FX6JfykI4wAYBeQMOTCAdwuu2oZ9v+qYVIxfZ1pDq/FLn9ZAzuYXVRjpR9+artcB+gSwQry872jabqf/AFYLrhrcQoErs0ZsOWia10WusRjDWxCUF2RWg5sCY8Co3xcZnXETaSwwbTnd95n3KHAewGVAeWy6r5HHWrEpajjBtWEjh0+qmP0HscoQrHk0xh0kK0+3MsXwbsAbR6fnMqBPACsEXvzj12ZjqQjDahKspFg3a5APHmNMgV1Ha7HMrC1joCTi7ohpQMQgXVdWj3HvLdfbGcCdqj0PfMIuAz5ww+bhvfq42RuwJ1Ug37mJoMR1GNrMFHXWLMdAg/HAkRrozN4Hv+NpugzoE8AKgRf/CrBkuDRg5SCLzsrZsOKM02bAeFYdVQiAeiQwEVGO0b7xmTvTLL4OfAHAh4KwH9wXPIYB4x7IYwxkQuw+zbsONRpy1QeaTIuYuJLMsQSWY1bjBdmX4FnAtKBPACvAi3vmbQLA9T+Ag8WMy4i4XZUZKnELZK435FnmujJrcBMboZFC66wCu9WG0CAWNYSYrcWw3f/Z8z/9D9z3Hv3FYA2vPcsc9w0b3D84QiSUuA6LGGUECOeLHr/aXwWy4XWA1+an4zKgTwArAFZ/rhaGwrUyzZszUsGQZNWVjSXFrBFbDprmdZFrzDckyUZQXsA4b8HMVm1K9956vZ0BXPgE8JF3bk4fvGHW78v3xXk0BhryuJgYDXTN42Kqh8GteVJMhmDNw9jDb53Ug9zg6BPACrDdVv+8MmOVCCZ85eAy4kyDGxxaTqzeGsNZN2uQD64NIWOmwL4hMWTkyaotbCbH2FZwO/g3ub5QfPm29t2A4KxcgGoDyFYgv4k6m9EtMal2fOihoSU349cGGFNW4zlPy7sBfQI4B3a8OZe+89M9WBQIWyPQ5FV0xag6lLHURmocc0GqmVp9woDCUtl3EUy4vpBX/4f4Bi4DfH8wsO5H3BijRUNAZ44KBcU0r0GJtVGb02HcoL0W7EmysvQVixpnI0B+So+9dSq9PBd/8GXjok8A54Cu/W2FiJXCl5y8og6NZWDX5MiJh2Mo5XFLZKZ2hTzLXFdmDW5iVHkftkpkVngmvf/2basyAXxo2+b04W1bOKzuh0J3UxlAtka+9rDNIulMFM7KRVSFoSVbQfitAcZ0q/GGzLz8aXgxsE8A5wBO/7E+aGFoVwrGlDBmo3zwWESNK9wQCIYkI6vawpX5fZBNyCJmVtfSYgOW032fvoNqNfD38A1BG3hkXypGAz2Ox8VENU+KyRAcchuLfSjcWsQKP/JmnwCmGs/vPpK+++xeWxWwYpQN6wNWCnqxYjAAv2VPYjiH6zpH81hmNwvE6o0ts8XgkRkG14aQMVPgsllkVVb/AC4DNKogtnui0D0qWhvI2fyiCvMxuEY7ZPUPAwZsNCFDPtf4P9h7Or10ZGNfBvQJ4CzQ6u8rBNgNGOc37MLWEwYjvjK0HcpYaiM1jrNZU7T6hH3g9hvS11fxDOD9N2zmOwLcT9wX2O6Jqy8Y9wpdGTKZUQFR0oxnZknUOEdxVJAKgyJMCV0btmAv4P4GI2q80c8C+gRwFjzw1B5bJWxFaMwSlbZWPteNikFkFjmPMZaBXXv/HDMejqGUxy2RmZsr5FnmurL7V3H1D3zldjsLwB36PoBbAzmbX1TF1oDH5qy92PGRJntkyOofBsz0CWBa8czrR9L/e34fVwOuB2SsDq61QHgOjC240k2NGCKvNuZmhszsijnUQgazQKwStL6FYglzYotBW/ONz6ze6h/4xp1XcWzcie6raHG7D+JxMTEa6Ek8GgPVPCkmQ7Dm0Zj24Yd7T6VdhzfuPxHtE8AE4PQ/VgWuB2T3uZQEQ4YPV/G8hc65GDb6OCvYst+vNeLGPEdmoXxjjgn2WGajD79nW/raJ29Hh1XFvddvTh9/1xY5vE+XwdgFsGtA5LW5j7UKuAF1DLSS8ct4cnPWNVA4QqOZtKHPAvoEMAGaALAMRDuBramZVusxBmR2QbLG1h7nFaIudN2MaW2UgO/79Oqf/ge+coedBUDYDuR9AJuBaTnm+wUOX0IFWQ9qjMJvzWPYjNEMV3Uax4SpJjinjACmaMvp4d19ApgqPP3q4fTozgM2/dv8b9as1lwttD6wRTyzcq0hZcwce+daegiSfQwVOVemoLHq6Nc66syGY4AQgH/fGpz+B+6782rfq7hP7gYbcG3cL7C1wY0xyIZclDNKYNCKtBwF9JRpuA4bxlT4+DPpJ/tOpxcObczLgD4BjMH2p231z0uBVgI0ZAtopWpKMmdDPTZzpMGRA3ssbyUGoCazGTM+TuYGEfFReHP21Ifv2Ja++onb5KwB7rpull8T5uOl4b5rLoZgZmzDWO5j7PkmVrNtcKBrzsb+oJazMRQxZ/Yp9sgGPQvoE8AYbH96r6Z/rAN5KRhqN6wRZCpnNPBUU1biYvJR67FqYxQUzHI2I+xJMTGIRZ3d7l/D1T/wK3fqMwG4Q7Ldd/itAcaUUdNkZNZIl3EajseZDajY5ZiMzBrFRsensQDvBmzMLwfN2OyGCbDD8cQrh9Iv/+l33APw48GTYfBjGglPqBuB1+HHPihfnt2Szmy7NS1edS31ugD2c3nRbEm2BDY/s9ni6ZQWzBZPpa0zp9PH7v8Vy034OfjDH/6YctgEjrnR7l4xuUDwsFePcu42rqLQOPzPX705fezd6+T3skroZwADbH96jz0f7AmB5wQMTXBtqCGD3HfdrNIWFFP5Bse118FOv/uutHDNO9fPwQ/wIeBposeC/aZPdts0a4bYbDp9ejkdP3Cw1GcDjCnDL8gVLkC1oSVbQfitAcZ0o6bJiFFCp4xTWMn4fSFW80Z8N6BPAANsf8omAFsmsFLQEAymlBJHwjlCZI2BQJxkoY+XECpTbOHq69Pi1msYX1/wg4AHRRwQgYjh4Hezyevw7t16zPwZBFvZgGWhx3ExBGsejUWf4EkxGYJnY0jpYLwbsPEuA/oEUOHHPzuUfvjS2/ZE1ioQRh8FZPi4IaJcZprqRvSwlpCGt7wZ/3NvvcL3Nx7L0Hz1138bnk2H3jqgHkiz43hGVyjFRtkLpAdMhRL64trQDrk1YMgFoxUz6en9p9MzBzbW3wnoE0AFnP5jwgc48cM8QMJK4I6HR3gEdWKkWALtzJl1vLrwKKgPiaGBMAnIzpxZTkcPHOADyw8ZujZsTMbPVKtsZkTpq4bMnHOEc0q5vHpblFXwnRsjoMUMRcrDNAtkNrHRPhPQJ4AKD9gEwPXCVh49tW2L5zcE4pOYRd5kBzoYVHMxjDF76njadOaEJdcj2v0dNaz8OPjtLADazmaO7NYfUbVsZpa6Rjvk1gBjyvCbjNhLMErNWVlBRFRZs8HluAoa+ysCfmSDXQb0CcDxAzv1/5FdAnC9yCuAz/7jrFoZ0AEaTcOUUnWbC9wwBMTWQ2+lGbyqvi4Rh0Yg/Iqrs4DDew7o54ifTeZiCA7ZGjFjcFuWdN2wGzbX1jQMaY7Y/dYsNjJ+MQSx/dQuA54y2yjoE4CDqz+XE5vp8ZwmY9avmJulsDGGsugzYAxKho8bIpV5nVzpTQsn01UHXrFJYB1+Bz32s9l/HOyhzfgagCaAMzaPHcNlgNVaRvm6L1FxSKByM3uMP1EGfVxFVOCR0fFLqM7UhgLlBuOGMajMRvpQUJ8AHN9+ei9neIAtJn3XXABCjzFgLHPVkBPxgtEIsGnhVLp6/8tpZnG9ffQ0DgTnjPCRw8HvlwGzW9PhN3brZ+ArKI0/DBj6OrOmuOQRUw1+omA0eWV2prE/dNSAPeVhII+Xa3wcjO8dmnGZQpPSw2+s10u180efAAzf23UwPfHKYXsK64lM5opgG5jGUNGRsw0Ba72vs4pHOBv7qTaz28ziQrr6wMs2GayzU82835NMqz8/F2B8eK/OAFoDUOvsqDJilMCgFWk5Cugp07CHx2Sc8TtxLpGKIUt1jecOnklP7NsYlwF9AjDwo78Gze/BWgm4QpC1AGRDBdlzuUfNZpEzEYYgYmgapnRlk8BVmATW7bsDOliESnMSMG28sLQpHd2/zx5U9bjx8JzLzyT0kIshWPNobCXjVoat8q1pGFI6WDr44Tc2xouBfQIwbP8pJgA8aeNJHE9oxbgigPnEDqZ0n50Y56aEa1eskyE4whqCtcEzS0t2JvBq2nR6vZxyal9p0LUfVr8bwA8FvWmaN6JmmvVBN3jKFaaRFJEjbiLW1L6sGo8iIiWjSlD4BREiWTPs3SeADYJHdhxIT712xBSmd8U4xVfI4XFsTfZdq7utFGylihay7wGSNQ0DyzYJHHw1zZ466oHLjerIoHQ/B8x4GYCJwC8D/PHQoGntioosf0r0cxHChZmXj1C4ZMSYUk7MiBi+Ct1nMXp7LEvmMnuM41Gr9oWDp9PjG+CfiE79BLD9p3aKyictDDL0wABnka8F5mSuTD7IY9icmYsRIKAhEB8wCw1XHXwjzZ6cl3M5wX3C0wY7FvuIg73S1VnA4vJsmt+3L6plaEyRGvYKFUgHhwQqN7P1geYoDJbxyB4j8vgFEYqyqADTfHx4Mf5G+GhwnwDw5R+b2zG7A5k53btogpkGfTBG2XirDRVk28LnFtrNGjHqVIsG21Vvv5E2Hz9sgXUAHgU6JITK54Tg5pcB+fFgw4Nyf4Tx6KkhW6axP3TNlU0c38cxUgxM6awYKsj0R82azA+/3ieAKxoPvXAgPfOGraqc3fUEzhzPZ4jMlSFI9pz3g3EMi7WrOaX7xqiCrpmaGcXcEAzeemRP2nIU37a7jMC+2D6Sx5of/P5uwJF9+nYgtsKQzuFXYMSaukIWvWsuWWHIBZMqyijicRFWU8rf+faZ9MMr/L8HTfUE8O2f4r1/A2d+YciTUXdqq4djNGxN9l2LsbnfaCGziS3z+9MWmwjWB3SQCJWOScBsMdllwF78f0XbeTMyoAcOQQmdOdJZqyYYUWxwgmXekXAfivGKucGvuLJcwTw7UGd2XOkvBk71BIDr/7LCWiAzborLca4NMcrQxTgmU8FsuTEfTFPdiMbmjIS1GkMibbFLga2H8YdLLwe0T63hYK+0vwjIswC7DDjypv+VZaJil2MyMmsUq34GmZGEp8goG1yOVmgc/YybiDNgTBn+KK70y4CpnQD+7rn96bnd85rxsWFyhyaXiR6MhqsA22ABNWIWMdDEyKTSx1tu5mSurcmhde39YbMnjqStb+9271JDB0uLOuYTgNthXgbgsYDE+nnXesjFEJzE0mVcsXTLk82ahiGly3j4MUdOvJxePHQ6ff8K/nNhUzsBcPU3blbbxjznz2lTCLSM1gvIlDVXBmSORjmOBfbawihxH1XQzgD05lPz6aqDr/NJeknh++ZCujELV2cBSzNb0twefNtSAMuwQeBxUchnK0WmW/kDMOJlkhonmIr9S6SurgkYrTDFW/QONXNFnwVM7QQQ1//nNDSu0TRMKRX+COpE6dSgDceI7luTfdf1PsE2nT5uk8Cr5iwxfmngh4YfVNnP2izOAKBnN6cjb71ZPZZ6JWWAGo+IPwEl4bZMRB8PgT3mvU3DL8ZMMCpUVBhwAry0MLZgL+B4Zn0CuMLwN8/uTzv2HOOKkA0b2Z6u4bvGE5iMeGYm3WcFfTnOSpQYQ6GL6T4gwT422PtlpnldpWGzZ06lqw++lrZdfQl/pdgB3zeQDvjwYebjLCC+G7D/EMsAPCZ2p8qRiiFL9RCMWFMqhr2N2b9E6uqaxoEpa0oPjVJGM/bxXz68kB67Ql8MnMoJgB/+0eRdDJsJk4UbG+SsoSYjXxhNjEA/s8GFVg8K6YiRSbmPR7WZw9Fwq80qfvGea9OP/+j96a5tl+OPipZDpRgIk4Js2S4DeBZgO6zHop0fx3g80oVlrtk//FGzZsAaJxgSurBiLU82axp+6PUr8xuC0zsB8DlqDW6uy8rKwCizrOLGIsZSVcOv2TWzYEqPDQ3IHI1yeUyvjbHu/9Rt6QPv3pp+8IfvI689dP+TDQe+rf5xFsDLAP+rS7k/KPyCqqKU0aJ3xexfMqykdD/CFeIuoyx651GsIEfy/lUcEjB9pV4GTN0EgIN/195j7gk2jxfGpE6PkztaZ8XPaWhco2mYUir8EdSJ0qlBG44RU7rvU7eSb79+c/r+t96XPnnb1fTXFjgS6qMBqGNgnQHAjux/235G+J8CFsYPq2aAvkJkj3HlhQRLUCOZV2IWKpcZgBuScbDGYa/wqWUIkj1m5B19EDJi4lfsMuBKnASmbwJ4Zr89Ef0JyudozPA+48fMT+k+0+DKsJFVp837eM6aissYKGS1goWVKDGGQhfTfUCCNfYXP3hT+ty972IcePc1s+nRf/ne9IW73uGRNYLvE/aDFj4NB72xvwYAxl8/xrsBguUCleQwRYptHGi0GNJVYY8RKmgQoSgb9GZBjnixZ6iyBGrtQJeHr8DLgKmaAJZs5sZf/uHsjoDP4JzozZELLspvYppFGQOrMnNtTc42c3JfGHNgOWRvyRIVs4gB6oiRbfX/pFb/GtdftSl99w/uTV9937UeWUPwoAkDVUeJr/6aBDanw3wdwOJ8LNr/8rOpebJZ0zCkdLB0y5PNmgGXvsNYnRPLHnrthD3HrP4KwlRNANt/uj+9fMBmacz2eILSLBFPXhDZ/VqT5CtUxigrMRghj7vmBm7McxS4RR9nxOGByCxibpzd76f/Q7xjy6a0/ffuSb/98Rs8sgbAPvh+ax/xtAo/rEwCRw4csiNHb1mynMZHbsI5R3KGWjL8glzhYrS3K46fqwdsqCRQKqT0e5EPJVbsjbnFK+4sYKomgG/b9X9M0HmirmfskeQQSrC1pmFIF5nPZtbYutHUomlYsuGMKvGlD747feaed3pgFFtmZ9L/+Ud3pX/yuck1Fwc7AHQMGFzwQEHcOS4D8KLg5qvzZwK4egbzh+JsUWaYB7MoMwhgKVk5jQPpG2uZ8Bpn9eINMXExEMBS+OxXcWz0GSDjLOBKwtRMAGcWl3n9z9maq4DDZ3TyWIsa9zGC58pY4EgjH1wZNjJSbQydyR4XM+w+bop7sNJ49X/86l8D5X/xD96T/uiLN3pkteH71OxbxTj4MQnwHYHN6cievchYio+MdVLBAPo5D5ArXIwfxRTHL7maoSjDrZArPB+jBGeF8WMnzH/4tZNp4Qq6DpiaCQCv/r9ip/+YtTGFx69ohDGbB/vMTmbQiRxjgEOpyUyzLGNgVWZurM7ZZk4YEsqJ5TPC9v4x1/+T8B9/8/b0H+67xb3VhA4PWUAHSKN5FjCT5t4+lJYWF/V4/YG2bF2oa4ZUTv2CJ5s1zqqt+ypXxoVuebJZM2CNt3tuwc4Crpx3A6ZmAvg2Vn8+B/VEzLN3ZsAYeSivGzUmWatOYPdda0y47rvO962AM0Luu+bmdcyRPadSVZvz5Q/flD519zYMs2L866/enP7Tb9+hsVYL2sFwKh+sgz7/rUCcCdhlwNye+DYjcqIhIpSH8gi4Vdb6/UcGquFwDaMV6O9cIhWb8vERGwsPP3wFXQZMxQRw6swSXwD0SZoITTfYWnH4Y1AnJhQXV6opsyb7Lpp9OpehcY1m3Kv/K8EffP5dfF1g86YJT+YLBY8ijOkWBw1dTARuNgkcwduB8aDIKBT4OBHOjJUWUr+jkZUYcbJqvKgw4C6l5zJjMx0b+ijnHH2keKsNFIzXAU7bJeeVgKmYALD6v3HopD0HbfMnp1ZTGFyP14xnLHRmR2ivG7WocR8jBXtMHGnkgyvDRkbKfdfWis1Wcv0/CXhn4K/+6d3pqs0YcxXg+0bz/ZPG0wwHvunqxcC5Q0fS0oR/hYae7EoP7I/fmcrHj0hdXVONUmGKN0U0StkY4/ilZgRVOCR4z9HFK+bFwKmYAPDiH+ZjGed3zubczMlcW5NDCy0DkBNLkNWBzKhSXusxsindWqZZljEwKwvXZrEvf/jd6ZN3Xtzbe/d98Lr0nd+/N127dTWeCvb0Hx4rfhApjjwOfrfNV/HdADyg/LgbnmzWNAwpHSzd8sot9qnet3Ex8ag99GqfANYFjp9e5BkAUFZPOlAt01Q3orE5I4GcCcaowJUVn0nWUnv/EgsGyVeojKH7GL2vi1n9a/zSPdekh//Fe9M7r7bV+aKhfcvWPEaYPeWqdwPm9u5Vilth1OYI+wMVhwQqNzP7w0d/Z9tC6QYfIecag1C40acZv1LM2YZ3A04sYNZY39jwE8C37dr/zcP6w42YmcUkTOQV28ztGgo11MGVRkO2Vhx+xc2d1LriESgRXRqGdBF8/ydX79X8z95xdfret97L7xFcHHQwyAKm4yDj0WhPO7f5w3Np8cwCf176ucvwIPUzDB+dncNnTMxSSM9pHEj1p3lhXeOd6NfGFNgIqPtQkjUmNgTrmr1HF9LDV8BZwIafALY/e0BPRczYfPJNYKuiS3YLTUap2FxqOJkVLIw4QFasNc+RWSjfePyYkUY+pa989Ob08fes7qf7PnLzVfwm4b3vuoivE2PnuKPQOMjzjssPhuEsYAveDcB/D/LHiTb603cOCdTake/Sk9VoUnn8UgOVoeKMYYV+J7jVo0A54+Y7ERVXwusA+I1sWMyfXOAZgE3KBFmTNKZp3JxVAfKQmMb5vejIgWvLOQWsJUYYRWRvyAxlVkmMwZFdqQGv5upfA39L4Affeh8ng4tCcxDz6HAX2icAtyP78G6APUr+PIKttmJIPvbMirXshq32zaxxxg16OK7nGBBPNBVSF/a+vCn20Csn0rEzl/KvNJ0/NvQEsP2ZA2nv3Gk96fITERmwa+O84tbMFAsQElOLow45cdEQ2Fr2MZCH8rpRY5K16gR23zW2tZoAgFuu28zLAVwWXBAG+1seT8XVuwFH546lpYUFyyk9DhHmEGBuhbOygogg1rLB5WiFVP79+BYqYrrJHwtPoebA8cV1/2Lghp4A4sU/zMreOGpdvCjLPmZ0MonxMLTFr7SS1GgatlYc/hjUiQnFX/noTemjd1zv3toALwjihcEL+yahDpQG+eCnYzc/A8BlAN8N2K3H6ZYfugv8LqAzxwbfNgT5+wpWL94QExdjH0jPadzKfDOHftRkDkBWxhSYAbsMsLOA9YwNOwEcObFg1/8H7UmGJ1uYJULzSSiuZ32/MZdX84rDUMUwmW3WkUPjruL0nRWMpLEjtNeNWkrf/NTarf418NYgvkn46x+5kMlmsN/5ceLAh8bB72cB+FAQ/o14BVSSXfhPLHNWVlBHhGADZOUGch/ui/x6Yw6MW+zEJFTpkDEGzgDmT63fy4ANOwFg9d8/f8pna8zipHaGhoYie4yspmXUFfMQc5lpGkUx1HocXBtzbBmwNhuAGrEEmZbSfZ+4NBMAgG8S/uU/vjv9w0+f38eNdSiEBVmTGYbJAE/BTenY3NG0cPo0H6ceqv98Jpg1A1Yf/RBHY+DzsdG+GHc0Zq3r8fb2Or8M2MATwAFrbR7m7O1s1jJSzvGkDM6xKucWYzQ+qkjw5WBrmAYZWoYgN2f6RhzNRdR97eM3p4/cfh1jlwr4tPD/+J07+fHhFcP3V8DTLPyaMQH4ZwLwbsDeN/n4kUVeqkTKeMEDVOF6lOD4+WKLWM1B48CUNXUfKHFRkctstz4BXGIcttN/TAA+aROFpWxyFoKBcTGiDdDLtTEiZcsiZ9XJsDq4Dq40GrJkw2v54t/ZgGMPXyD606/d7JEVAh15PKCBpuNxe/rh4PeJYG4f/l6DNvwwsIJmBoKZF4WBxFTso+7qz63SvLHAmZ3cANdMgdXk2jyWmyq8Jhhxuz30yvF09PT6vAzYkBPAQzsPpUPHFzTj84nmczIZPiQiymWmqW5Ej9SadC1Z3VfDkKiAz5Y+LTRZdWBzqeFkVjDdfwlP/8fh33z9Fn6lGLt1TrDIzR+HNJ52EcMkoLOA0wv4XoA/Vlc1nw1RUfeBEhelm2roDDEIlUop/j7Agy1iuskPHD65lJ7csz7/i/CGnACefn3OZ2bNwj4RS5PddwM8w1xms8wKVw4gEW6Txn35HZEVYi4zLe7ZdeTAtdn29Y/dlD502yX4+37nAP6oCC4Jzv1FQhwNg6LwScjjKWhmfGbRfHuw+eemhj5C0sHM5px4YNhcW+OsWnamU8Ybct1/rFX56JN5gCfX6b8R35ATgFYWm4dJNVfGMrEJY0YYy4x4ZoapyWgiWJKiiLmNjmWMKpKPDaYWRx1y4pn0zct0+j8OeFEQLw7iRcJzQg9C5o8tM88ANAGQAygJoKxIsfWFRsvhpAp7jFBBi0FIfSvm+GVjrGbJFWPcLqwHbMgJ4P03X0PGPDxi1gw1BBlyhKXCL8LQFI9LCMOy7LvIXBna4mOVwfX/eV5/rzHw9iDeJsQfHp0MPPMr44EADh+mCWDr1e/IPwD+TMAop08ldp+GjTFpMn0Wsw/ZpeIIKcY+CLFfcGW+8caCwrQV4u5tF/sdi7XBhpwAfv4efEbe5umYxevZHM83sms1o4yByPBxQ0S5zDTVjeiqlmNKKUzH4wMOQxXD5Jn0G5+9NX3glst/+j8EPiiEPz0+8ZuEfBCV8QcwYL4GMJuu3eZvNSIlVZi18AtLO/PW1jQYhIa1+rnLH8mBcfN9uBB88taL/Gj1GmFDTgAfvPWa9LtfvN1map+oyXkuFzc5sMfIXpfZa9wArgLmkYLNMqvxHIViZDUtqy7MQ8xtmd2U/tWvvp+x9Qj88xF8dBgfIT43cBDxaHI3/E3phne9yx8/Hnv782gMm2trnNUneFJspTbsm/kC8FsfvS7d+87L8f8az40NOQEAf/Jr708fu+O66rlm87g/2chmmtkrJoHDrww9nVXOSMvIN8xOMnUqDEkNhox4GSMMB//n37tWf9J7dcBvEn7rfeP/MSkeBx9o9bio8fSTf/OtN6drr7/OpD1+iyIuFSylm/yxUJdcUzM3jM/7H60hICv3YvGBG7ekP/zC+v3dbdgJ4J53X53+++9/Mn36zusxeRMxgWf2NucrQ0MdXOnIuRywVF4sgoFxsTFg2mv++Nc/kP74Nz4gZ50DXyMe/z8J7Yjygy4jfOMbbrgu3XTLjfYzq1Zg+wHwZxk+ZcUBSMaC0YgZAo8x1qjJfmOrgI/ctDX9+a/ekt5zw/q8/gdm7MGv0sNdn8CHgv79X/0s/eeHdqdTC0v83eKph18+Zn6x+Zbgc9IL6JvMAfJZEANEx4nlE8arwhjms3ffkP75l+80u4vpKwn4u/h//sjB9G+/sz8diw/A8B+C2oNbXpReWkrvuGo23bjtmrTNbPTH4b8f64MVe+LTtPq5jcUg3/7efdyz9b8A4G8s/s4nrk9/ZCs//j3besaGnwACu/YdT//rR3vSzr3H054jK3lP1p859RNkwhOlTddPsLYbOGOYsPu59qrN6ZN2xoKD/7c+tzp/7uty4s25hfTArqPpp3tOpuf2nkzHMRnYwb9gj/UUTj6N9fQzo7YJ2iYG1CwtnLG5YoE/ngzO0EOMj9U/3lwTgbHjAKXuQ7e/K932zndw/9AFu9nyaPyma2fTe+1a/9c/fO26veYfYmomgI6OjlFs2NcAOjo6zo0+AXR0TDH6BNDRMcXoE0BHxxSjTwAdHVOMPgF0dEwx+gTQ0THF6BNAR8cUo08AHR1TjD4BdHRMMfoE0NExxegTQEfHFKNPAB0dU4w+AXR0TDH6BNDRMcXoE0BHxxSjTwAdHVOMPgF0dEwx+gTQ0THF6BNAR8cUo08AHR1TjD4BdHRMMfoE0NExxegTQEfHFKNPAB0dU4w+AXR0TDH6BNDRMcXoE0BHxxSjTwAdHVOMPgF0dEwx+gTQ0THF6BNAR8cUo08AHR1TjD4BdHRMMfoE0NExxegTQEfHFKNPAB0dU4w+AXR0TDH6BNDRMcXoE0BHxxSjTwAdHVOMPgF0dEwx+gTQ0THF6BNAR8cUo08AHR1Ti5T+P+VkkVJGWqyUAAAAAElFTkSuQmCC;" vertex="1" parent="1">
          <mxGeometry x="88" y="60" width="70" height="61.8" as="geometry" />
        </mxCell>
        <mxCell id="AVKwIdNILiTaegCWu8nr-101" value="" style="sketch=0;outlineConnect=0;fontColor=#232F3E;gradientColor=none;fillColor=#232F3D;strokeColor=none;dashed=0;verticalLabelPosition=bottom;verticalAlign=top;align=center;html=1;fontSize=12;fontStyle=0;aspect=fixed;pointerEvents=1;shape=mxgraph.aws4.users;" vertex="1" parent="1">
          <mxGeometry x="870" y="232.53" width="78" height="78" as="geometry" />
        </mxCell>
        <mxCell id="AVKwIdNILiTaegCWu8nr-102" value="" style="shape=crossbar;whiteSpace=wrap;html=1;rounded=1;direction=south;" vertex="1" parent="1">
          <mxGeometry x="840" y="64" width="20" height="466" as="geometry" />
        </mxCell>
        <mxCell id="AVKwIdNILiTaegCWu8nr-103" value="&lt;span style=&quot;font-size: 14px;&quot;&gt;DevOps Responsibility&lt;/span&gt;" style="text;strokeColor=none;align=center;fillColor=none;html=1;verticalAlign=middle;whiteSpace=wrap;rounded=0;" vertex="1" parent="1">
          <mxGeometry x="879" y="320" width="60" height="30" as="geometry" />
        </mxCell>
        <mxCell id="AVKwIdNILiTaegCWu8nr-104" value="&lt;span style=&quot;font-size: 14px;&quot;&gt;Microsoft Azure&lt;/span&gt;" style="text;strokeColor=none;align=center;fillColor=none;html=1;verticalAlign=middle;whiteSpace=wrap;rounded=0;" vertex="1" parent="1">
          <mxGeometry x="98" y="121.79999999999997" width="60" height="30" as="geometry" />
        </mxCell>
      </root>
    </mxGraphModel>
  </diagram>
</mxfile>
